<?xml version="1.0" encoding="UTF-8" standalone="no"?>
<svg
   version="1.0"
   width="400pt"
   height="400pt"
   viewBox="0 0 400.00001 400.00001"
   preserveAspectRatio="xMidYMid"
   id="svg22"
   sodipodi:docname="gifaram.svg"
   inkscape:version="1.2.2 (732a01da63, 2022-12-09)"
   xmlns:inkscape="http://www.inkscape.org/namespaces/inkscape"
   xmlns:sodipodi="http://sodipodi.sourceforge.net/DTD/sodipodi-0.dtd"
   xmlns="http://www.w3.org/2000/svg"
   xmlns:svg="http://www.w3.org/2000/svg">
  <defs
     id="defs26" />
  <sodipodi:namedview
     id="namedview24"
     pagecolor="#ffffff"
     bordercolor="#000000"
     borderopacity="0.25"
     inkscape:showpageshadow="2"
     inkscape:pageopacity="0.0"
     inkscape:pagecheckerboard="true"
     inkscape:deskcolor="#d1d1d1"
     inkscape:document-units="pt"
     showgrid="false"
     inkscape:zoom="0.90509668"
     inkscape:cx="464.59125"
     inkscape:cy="366.81164"
     inkscape:window-width="1920"
     inkscape:window-height="1009"
     inkscape:window-x="-8"
     inkscape:window-y="-8"
     inkscape:window-maximized="1"
     inkscape:current-layer="g20" />
  <g
     transform="matrix(0.05,0,0,-0.05,-54.677366,457.17613)"
     fill="#f08000"
     stroke="none"
     id="g20"
     style="display:inline"
     inkscape:label="g20">
    <g
       id="g430"
       inkscape:label="fill"
       style="display:inline"
       transform="translate(-2e-5,4.9999999e-5)">
      <path
         id="path421"
         style="display:inline;fill:#ffffff;stroke-width:8.73436"
         d="m 7146.5332,2094.0859 c -29.4445,0.352 -58.9691,10.1798 -81.9468,28.7661 -14.52,11.6969 -26.2022,26.9592 -33.3679,44.1943 -2.4258,5.777 -4.3361,11.7644 -5.7446,17.8687 -16.046,64.1439 -31.3196,128.4801 -47.718,192.5362 -0.095,0.3524 -0.2997,1.1627 -0.4368,1.6905 -0.7352,2.8584 -1.4705,5.7167 -2.2058,8.5751 -0.077,0.3085 -0.3012,1.1621 -0.4347,1.6798 -0.7418,2.858 -1.4836,5.7161 -2.2255,8.5741 -0.081,0.2929 -0.3046,1.1611 -0.4403,1.6749 -6.1059,23.3985 -12.4088,46.7458 -18.9718,70.0204 -0.025,0.1001 -0.3137,1.1054 -0.4354,1.5376 -7.0226,24.9408 -14.5591,49.7321 -21.8721,74.588 -8.5619,28.9948 -17.0967,57.9976 -25.6808,86.9857 -0.2766,0.9197 -0.627,2.1089 -0.932,3.1321 -10.0268,33.7935 -20.1726,67.5522 -30.6031,101.2234 -0.096,0.3175 -0.3559,1.1467 -0.5147,1.6603 -8.7775,28.2846 -17.7724,56.5025 -27.0927,84.6131 -0.091,0.2883 -0.3787,1.1392 -0.5453,1.6434 -9.3142,28.0447 -18.9633,55.979 -29.0407,83.759 -0.04,0.098 -0.3942,1.0795 -0.5494,1.5013 -17.336,47.6676 -35.9849,94.8697 -56.4564,141.2819 -8.9687,5.3252 -18.7894,8.9814 -28.5697,12.504 -16.7845,5.9512 -33.8631,11.3221 -49.7995,19.3788 -111.1982,52.2522 -221.2449,106.9253 -330.5801,162.9619 -107.6636,55.1597 -214.6562,111.6154 -321.498,168.3466 -68.5541,36.3972 -137.0483,72.9074 -205.6299,109.2529 -79.8636,41.7571 -158.6548,85.518 -237.4619,129.2238 -22.5906,12.5171 -45.2143,25.0713 -67.8496,37.5449 -1.0273,0.5617 -2.278,1.2535 -3.3911,1.8652 -4.5259,2.4915 -9.0518,4.9831 -13.5777,7.4746 -0.3407,0.1918 -1.0524,0.578 -1.5352,0.8441 -5.1432,2.8209 -10.2864,5.6417 -15.4296,8.4626 -0.3378,0.1801 -1.054,0.5752 -1.5366,0.8376 -67.4333,36.8989 -135.261,73.1099 -204.1255,107.2776 -12.7213,7.4553 -26.7113,12.7297 -41.1922,15.5097 -24.5341,4.7736 -50.1415,2.5825 -73.9387,-4.7812 -6.0007,-1.8388 -11.873,-4.0682 -17.663,-6.4825 -28.9209,-10.468 -56.7778,-23.6589 -83.9581,-38.0038 0.1762,0.098 -0.9807,-0.521 -1.3387,-0.7105 -19.9511,-10.5689 -39.5575,-21.7713 -59.0968,-33.0786 -0.271,-0.1518 -1.0387,-0.6018 -1.5003,-0.8681 -43.4476,-25.1776 -86.7032,-50.909 -132.3339,-72.008 -29.9914,-13.9173 -61.0182,-25.7471 -93.0162,-34.1641 -52.2943,-14.568 -106.0244,-23.5975 -160.0351,-28.7029 -77.4367,-7.3473 -155.363,-6.7906 -233.0212,-4.1107 -37.2528,1.2984 -74.4878,3.0491 -111.7261,4.6973 -79.4711,7.4684 -158.2912,20.6528 -236.5386,36.2409 -70.9277,14.0962 -141.4449,30.1429 -212.0823,45.6032 -10.5473,2.2962 -21.0878,4.6303 -31.6494,6.8574 -45.3589,7.6001 -89.2109,21.7818 -133.4174,34.1106 -1.7134,0.4758 -3.4284,0.948 -5.1424,1.4226 -0.1026,0.031 -1.1088,0.3027 -1.5424,0.422 -28.1211,7.6699 -56.6035,14.4875 -85.6474,17.4957 -23.1744,2.4083 -46.7285,2.2016 -69.6911,-1.9885 -3.1121,-0.5886 -6.25,-1.1021 -9.2567,-2.126 -25.4732,-7.7432 -49.417,-19.9553 -71.5614,-34.6414 -27.8067,-18.4353 -52.9809,-40.4857 -77.3178,-63.2187 -30.2563,-28.3015 -59.3466,-57.8745 -90.7732,-84.9058 -7.0739,-6.588 -14.1478,-13.1759 -21.2217,-19.7639 -0.3003,-0.2757 -0.8778,-0.8193 -1.2841,-1.1975 -6.7803,-6.3339 -13.5606,-12.6678 -20.3409,-19.0017 -0.4343,-0.4115 -1.1192,-1.0487 -1.6495,-1.5468 -13.8579,-12.965 -27.6968,-25.9503 -41.5283,-38.9435 -0.5146,-0.4897 -1.262,-1.1885 -1.8659,-1.7585 -118.8629,-111.7809 -236.5886,-224.7641 -353.8612,-338.21 -135.7748,-131.3203 -270.9623,-263.2465 -406.6973,-394.6077 -129.1535,-125.0082 -258.8174,-249.4967 -389.911,-372.4725 -43.4836,-40.7806 -87.1198,-81.3983 -130.9458,-121.8106 -24.9436,-27.2784 -58.1701,-46.5443 -93.8283,-55.9499 -33.4343,-8.8533 -69.3193,-9.1317 -102.6032,0.5705 -22.9976,6.6582 -44.6095,18.1971 -62.7128,33.8916 -3.4299,2.919 -6.6104,6.1109 -9.9685,9.1088 -15.7263,14.5398 -28.2234,32.5144 -36.5062,52.2588 -10.9866,26.0314 -14.735,54.8262 -12.3068,82.8956 2.783,32.1688 13.3834,63.6341 30.6152,90.9394 2.3848,3.7421 4.9073,7.3935 7.2536,11.1607 34.2328,53.527 68.751,106.8709 103.494,160.0681 23.8842,36.545 47.876,73.0195 71.9744,109.4235 53.9227,81.4405 108.3663,162.5353 163.2355,243.3407 68.4342,100.7741 137.5219,201.1025 207.0701,301.1107 12.5848,18.108 25.212,36.1872 37.8039,54.2897 28.263,44.5382 62.1298,85.5218 100.5997,121.6153 43.0212,40.3812 91.8317,74.6468 144.668,100.9467 18.3682,9.1373 37.206,17.3427 56.4432,24.4716 23.8972,7.2016 46.5929,18.1435 67.4924,31.7464 27.7244,18.0144 52.3502,40.4746 74.352,65.0766 2.8627,2.9997 5.8963,5.8358 8.8107,8.7869 23.475,23.3177 46.3747,47.2127 68.7381,71.5979 0.043,0.055 0.7727,0.8468 1.0704,1.1751 82.4056,90.024 157.1705,186.8625 225.7768,287.7455 13.206,19.4143 26.1832,38.9839 38.9575,58.6848 0.1453,0.2181 0.6517,1.0075 0.936,1.4454 1.1066,1.7122 2.2132,3.4244 3.3198,5.1367 0.1662,0.2652 0.6492,1.0099 0.9369,1.459 3.9382,6.1115 7.8535,12.2377 11.7545,18.373 0.1544,0.2508 0.642,1.0143 0.9243,1.4619 15.1192,23.8313 29.9405,47.8511 44.4996,72.0283 0.187,0.3037 0.6187,1.0291 0.8994,1.4943 44.9903,74.817 87.4437,151.1385 128.1762,228.3494 1.8921,3.5938 3.7842,7.1876 5.6763,10.7813 0.1234,0.2285 0.5566,1.0629 0.7993,1.5246 9.6555,18.3997 19.1947,36.8605 28.6987,55.3384 25.0889,43.5548 48.5504,88.0874 75.7794,130.3773 23.2799,36.19 49.3577,70.9019 80.6739,100.5691 22.1683,21.0385 46.9897,39.3895 74.0997,53.5633 7.122,3.7405 14.4075,7.1744 21.7962,10.3482 58.8461,14.4214 118.2654,26.4007 177.9003,37.056 95.1139,16.9999 190.7656,30.7355 286.1295,46.2192 0.32,0.049 1.1849,0.1935 1.7138,0.2791 21.5001,3.4937 42.9796,7.1149 64.4434,10.8239 5.5659,0.7435 11.1297,1.5021 16.6904,2.2838 -0.027,2e-4 1.125,0.1622 1.548,0.2242 21.0604,2.9959 42.0643,6.385 63.0048,10.1273 -0.024,-0.01 1.1187,0.2026 1.5398,0.2782 55.7881,10.0427 111.0995,22.7084 165.7375,37.798 0.01,-6e-4 1.0991,0.3055 1.5167,0.4207 4.7474,1.3126 9.4871,2.6525 14.2255,3.9973 -0.019,-0 1.0931,0.3151 1.5048,0.4349 81.0733,23.2082 160.6007,51.7497 238.1046,84.9694 20.7397,7.3219 40.872,16.3292 60.2445,26.7362 46.1106,24.7526 87.7546,57.0332 126.3414,92.2091 20.6518,18.8348 40.4704,38.5625 59.8529,58.6951 21.4558,21.9755 42.8203,44.0399 64.1022,66.1838 0.2851,0.2909 0.8317,0.866 1.2168,1.2657 72.6488,75.6295 144.3215,152.191 215.4609,229.2401 0.4793,0.525 1.1747,1.275 1.7369,1.8863 70.5955,76.4906 140.6769,153.4535 210.6758,230.4898 79.2218,87.1684 158.3388,174.432 238.0171,261.1841 28.1613,30.6719 56.411,61.2622 84.7212,91.7967 30.4481,32.8836 60.7365,65.9146 90.9408,99.022 0.7395,0.8166 1.6609,1.8239 2.4703,2.7137 105.6692,115.928 210.1032,232.9728 315.0987,349.5094 63.8709,70.88 127.9394,141.5835 192.6303,211.717 80.0556,86.8007 161.0545,172.7432 243.6987,257.0878 14.524,14.8259 29.1138,29.5887 43.729,44.3237 18.9186,23.1876 43.4295,41.7222 70.7387,53.9179 25.4215,11.3478 53.5659,17.1113 81.4156,15.0216 20.0856,-1.483 39.8827,-7.178 57.5455,-16.8869 4.9078,-2.6699 9.6238,-5.681 14.1986,-8.8827 15.1703,-8.8949 28.5243,-20.8538 39.0387,-34.9495 12.2538,-16.2908 20.6747,-35.1469 26.6996,-54.5371 7.5339,-24.1054 11.5241,-49.095 16.4714,-73.8075 0.1771,-1.0533 0.052,0.5428 0.065,0.9203 -1.4491,60.2685 -2.8982,120.537 -4.3473,180.8055 -2.3476,11.6852 -2.9677,23.769 -1.2773,35.5879 -63.94,-11.0158 -128.8957,-16.6829 -193.796,-15.26 -57.9054,1.2515 -115.7645,8.213 -172.064,21.9351 -6.0625,1.4262 -12.1467,2.767 -18.1709,4.3529 -80.475,20.7364 -155.3187,62.6615 -215.2986,120.1499 -38.1356,36.5508 -70.247,79.5106 -93.6482,126.9085 -9.1582,18.5198 -16.9599,37.7087 -23.3353,57.3604 -7.9788,20.9373 -11.615,43.5055 -10.6519,65.8894 1.0838,26.4449 8.4483,52.4447 20.2637,76.0641 15.1133,30.1977 37.2047,56.7175 63.4495,77.8844 12.4884,10.0546 25.9662,18.8857 40.2064,26.2545 15.9016,10.3968 33.6768,17.9199 52.2297,22.026 20.6335,4.6194 42.0452,5.0563 62.9996,2.6227 28.5143,-3.3115 56.1738,-11.6039 83.1019,-21.2996 15.123,-5.4446 30.0649,-11.3729 45.0442,-17.1969 0.2289,-0.084 1.119,-0.432 1.6027,-0.6179 1.7255,-0.6671 3.4511,-1.3342 5.1766,-2.0013 -0.082,0.028 1.0549,-0.4022 1.4461,-0.5522 3.1073,-1.1954 6.2552,-2.2931 9.2525,-3.7525 2.4156,-1.0978 4.838,-2.1805 7.2584,-3.2675 -0.021,0.014 1.0395,-0.4603 1.431,-0.6325 20.1582,-8.955 40.5588,-17.3761 61.2604,-24.9965 -0.1973,0.068 1.0419,-0.3805 1.4214,-0.5199 41.2722,-15.0929 83.8707,-27.045 127.4836,-32.9361 5.5705,-0.747 11.1542,-1.3952 16.7474,-1.9463 -0.1801,0.014 1.1093,-0.1052 1.5147,-0.1442 31.8768,-3.001 64.1519,-2.4174 95.7959,2.6162 6.9648,0.671 13.9266,1.4192 20.8479,2.4619 11.708,1.722 23.326,4.0386 34.82,6.8513 -0.1563,-0.033 1.0848,0.2696 1.4821,0.3696 40.5684,10.0937 79.318,26.2821 116.9508,44.2757 50.5534,24.2104 99.4425,51.7769 150.4148,75.1295 11.7902,5.3696 24.9692,7.912 37.8984,6.5689 12.1162,-1.186 23.7511,-5.7407 33.9043,-12.3769 1.755,-1.148 3.4789,-2.3445 5.1562,-3.6036 -12.1672,48.323 -22.4033,97.3317 -26.3066,147.0885 -1.5948,20.1316 -2.1163,40.3536 -1.395,60.5373 -0.1483,28.2654 5.9868,56.4858 17.4642,82.2953 20.1866,45.5729 56.4475,83.5057 100.3309,106.9238 29.1849,15.6201 61.906,24.8053 95.0325,25.8426 4.2069,0.074 8.4113,0.2327 12.6185,0.2913 24.3742,0.2712 48.8259,-2.9437 72.1965,-9.9182 23.7506,-7.1457 46.2104,-18.4725 66.1809,-33.1691 24.6437,-18.0874 45.4342,-41.1065 62.2106,-66.5894 19.7173,-29.9577 34.1312,-63.2073 44.1777,-97.5778 5.8712,-20.1265 10.2228,-40.6887 13.1517,-61.4458 9.9229,-49.2925 13.5672,-99.5244 18.1682,-149.5105 3.6685,-39.5896 7.9263,-79.2749 17.0572,-118.0381 4.6757,-19.8946 10.7114,-39.4909 18.4884,-58.3989 3.1642,-9.9546 8.0842,-19.347 14.5274,-27.572 10.2582,-13.1463 23.845,-23.2904 38.2342,-31.515 17.95,-10.2272 37.2783,-17.7403 56.7339,-24.5526 5.127,-1.822 10.3126,-3.4793 15.4437,-5.2853 46.5125,-18.6791 93.4922,-36.5639 137.9776,-59.818 32.7216,-17.0897 64.1104,-37.1461 91.6549,-61.8352 16.3077,-14.5909 31.1965,-30.7883 44.1461,-48.4352 55.434,-74.1194 105.3419,-152.1438 159.215,-227.3733 13.0502,-18.2165 26.3433,-36.2608 39.9942,-54.0322 -0.01,0.019 0.6958,-0.8999 0.9589,-1.2382 24.8767,-32.3036 51.022,-63.6666 79.0704,-93.2736 20.6853,-22.7797 44.7456,-42.3903 70.7797,-58.7467 38.608,-24.292 81.2164,-41.5874 124.7733,-54.7557 36.181,-10.9186 73.144,-19.0422 110.2967,-25.8628 0.089,-0.019 1.1295,-0.2057 1.569,-0.2865 1.337,-0.243 2.674,-0.4861 4.011,-0.7291 0.058,-0.01 1.1278,-0.2002 1.5624,-0.2763 8.3822,-1.4913 16.7644,-2.9825 25.1466,-4.4737 1.9384,-12.638 3.8767,-25.276 5.8145,-37.9141 0.06,-0.4055 0.1833,-1.1866 0.2675,-1.7358 8.9927,-58.2111 18.3375,-116.4357 23.4557,-175.1481 2.291,-26.084 3.7056,-52.2517 3.9569,-78.4367 2.6759,-39.9675 -9.5187,-80.8091 -33.9556,-112.5826 -14.2821,-18.6139 -32.8858,-34.0056 -54.187,-43.928 -10.8191,-5.0559 -22.2903,-8.7422 -34.0425,-10.8632 -26.8572,-3.1677 -53.9839,-3.4911 -80.9714,-2.1194 -46.3056,2.3096 -92.1643,9.4808 -138.2367,14.2753 -8.7,0.9089 -17.4109,1.7146 -26.1326,2.3842 0.089,-0 -1.1257,0.083 -1.5431,0.1149 -3.5784,0.258 -7.1614,0.4576 -10.7198,0.9331 -37.549,4.248 -75.1281,8.2266 -112.7274,12.0028 -0.4011,0.037 -1.1948,0.1184 -1.7462,0.1724 -3.7278,0.3709 -7.4556,0.7418 -11.1835,1.1128 -1.0257,0.1035 -2.3221,0.2289 -3.4519,0.3409 -92.8211,9.1477 -185.7603,17.0501 -278.7366,24.4378 -9.7213,0.7732 -19.4434,1.5348 -29.165,2.3033 -1.3765,0.1031 -2.991,0.2326 -4.459,0.3458 -7.1816,0.5599 -14.3633,1.1197 -21.5449,1.6796 -2.0256,0.1605 -4.254,0.3288 -6.3576,0.4924 -119.1829,9.2215 -238.409,17.8853 -357.5603,27.5095 -37.2757,1.2507 -74.2137,7.1914 -110.6925,14.6847 -40.1056,8.2067 -79.8227,18.2835 -120.1343,25.4822 -25.3661,4.5094 -51.0007,7.831 -76.7768,8.5441 0.3567,-0.01 -1.0592,0.026 -1.3925,0.035 -5.0167,0.1562 -10.0364,0.064 -15.0537,0.1148 -23.4755,0.4813 -46.9558,-3.9124 -68.8886,-12.2184 -29.1962,-11.0289 -55.6296,-28.6307 -78.4294,-49.8184 -15.2393,-14.1727 -28.9,-30.0153 -40.8861,-47.0211 -69.4421,-86.95 -137.7517,-174.7994 -205.3508,-263.1882 -75.6577,-98.9168 -150.4334,-198.5041 -224.9676,-298.2689 -68.6991,-91.984 -137.2855,-184.1987 -206.0941,-276.1579 -7.3732,-9.8835 -14.8395,-19.6981 -22.0723,-29.6855 -81.4159,-111.3608 -163.458,-222.2779 -243.0322,-334.9704 -28.5647,-40.4513 -56.802,-81.1347 -84.5788,-122.1315 -0.1692,-0.2576 -0.6717,-0.9949 -0.9688,-1.4367 -24.9672,-36.8825 -49.5458,-74.029 -73.6386,-111.4891 -0.1075,-0.175 -0.646,-1.0094 -0.9202,-1.4394 -41.6076,-64.7783 -81.7234,-130.5274 -119.7165,-197.4942 -0.1656,-0.2858 -0.5917,-1.0447 -0.8572,-1.5118 -3.4331,-6.0972 -6.9155,-12.1689 -10.2672,-18.3106 -24.738,-48.8208 -50.6658,-97.1268 -71.9919,-147.5823 -16.1022,-38.1555 -29.6082,-77.6529 -36.72,-118.5416 -4.7968,-27.4475 -6.563,-55.4761 -4.4845,-83.2825 1.8238,-26.292 8.7246,-52.1398 19.596,-76.1183 15.3146,-33.8691 38.1153,-63.9922 64.7105,-89.8073 17.4899,-16.9635 36.701,-32.1187 57.0681,-45.4783 58.0052,-41.8225 116.5067,-82.9534 175.3212,-123.629 0.5519,-0.3859 1.3713,-0.9477 2.0259,-1.4011 86.8473,-60.0243 174.3458,-119.0986 261.9539,-178.0047 89.5102,-60.2097 179.1313,-120.2565 268.2561,-181.0364 34.3674,-23.4465 68.6642,-46.9963 102.8593,-70.6931 91.1373,-60.6259 178.8555,-126.2496 264.514,-194.3558 88.2402,-70.1501 174.3304,-142.9435 260.2648,-215.8833 15.4055,-13.0715 30.8041,-26.1513 46.2061,-39.2271 14.213,-67.1243 28.1369,-134.3087 42.2168,-201.461 14.4409,-76.1945 31.354,-151.8868 47.4108,-227.7494 17.9272,-84.6714 34.81,-169.6576 46.041,-255.5136 8.5075,-64.9127 13.7269,-130.3239 13.7962,-195.8171 1.9352,-30.0389 -2.7443,-60.645 -14.6548,-88.3533 -9.0002,-20.9849 -22.3183,-40.2135 -39.3787,-55.4469 -8.2994,-7.4452 -17.4646,-13.9181 -27.2301,-19.2955 -15.6666,-12.7884 -34.6738,-21.2767 -54.5091,-25.0359 -8.8865,-1.7026 -17.9466,-2.4784 -26.9929,-2.3723 z m -2599.457,1963.0196 c 4.0905,0.01 8.181,0.021 12.2715,0.047 0.188,-9e-4 1.1978,0.01 1.7042,0.014 17.6813,0.1348 35.3613,0.5167 53.0301,1.1993 0.051,-7e-4 1.1438,0.046 1.5834,0.063 1.4937,0.061 2.9874,0.1218 4.4811,0.1827 0.021,0 1.1407,0.052 1.5752,0.072 1.4938,0.067 2.9876,0.1341 4.4814,0.2012 -0.016,-0 1.1365,0.056 1.5651,0.076 21.6051,1.039 43.1877,2.5758 64.7123,4.715 -0.1185,-0.015 1.1185,0.1138 1.531,0.1552 2.2661,0.2325 4.5331,0.457 6.7971,0.71 -0.1883,10.7511 -2.0791,21.3759 -4.0586,31.916 -15.9854,33.8942 -36.1132,65.6654 -57.8858,96.106 -1.0699,1.5031 -2.1544,2.9957 -3.2314,4.4936 -0.01,0.016 -0.6708,0.9236 -0.9253,1.2755 -2.2962,3.1668 -4.6137,6.3181 -6.9399,9.4628 -0.023,0.023 -0.6829,0.9165 -0.9447,1.2661 -29.117,39.1435 -60.4225,76.5871 -90.1393,115.2671 -17.302,17.7398 -31.2879,38.2964 -47.1035,57.2989 -8.2971,9.872 -17.1358,19.4858 -27.7487,26.9195 -7.6159,5.349 -16.3548,9.2503 -25.6039,10.5951 -5.0787,0.6751 -10.1959,1.0421 -15.3101,1.3264 -8.5464,0.3868 -17.216,0.2709 -25.5854,-1.6828 -18.8359,-28.4014 -34.2829,-58.8688 -48.8086,-89.6465 -0,-0.018 -0.4839,-1.0339 -0.6669,-1.428 -16.2748,-34.6319 -31.4214,-69.7964 -48.5362,-104.031 -10.4824,-29.1953 -25.424,-56.4656 -38.4011,-84.568 -7.758,-16.918 -14.9221,-34.2665 -18.9073,-52.5072 -1.0585,-4.8722 -1.8807,-9.7984 -2.3928,-14.7588 13.6625,-2.2701 27.4467,-3.7212 41.2461,-4.8477 -0.082,0.011 1.1261,-0.088 1.5444,-0.12 17.3677,-1.3609 34.7672,-2.2633 52.1505,-3.3907 16.1991,-0.6624 32.3978,-1.3316 48.5961,-2.0107 1.2053,-0.052 2.6646,-0.109 3.9674,-0.1629 19.2419,-0.7937 38.4849,-1.5615 57.7319,-2.2219 0.2944,-0.01 1.1997,-0.039 1.7287,-0.055 11.7275,-0.3999 23.4568,-0.7449 35.1873,-1.048 0.081,0 1.147,-0.026 1.5921,-0.036 15.8113,-0.3856 31.6255,-0.6644 47.4411,-0.7867 0.2287,0 1.1991,-0.01 1.714,-0.01 5.5191,-0.038 11.0383,-0.052 16.5575,-0.052 z m -660.711,70.2734 c 8.0273,0.1712 16.2696,1.3297 23.447,5.1318 5.124,2.6776 9.2951,6.9286 12.3234,11.8169 24.7764,37.3128 48.5711,75.2817 71.1535,113.9634 -0.041,-0.06 0.5671,0.9786 0.7771,1.3434 20.8874,35.8469 40.7143,72.316 59.2756,109.4222 0.094,0.1982 0.534,1.0734 0.7616,1.5331 10.8967,21.825 21.3147,43.8893 31.2902,66.1493 3.8187,6.3195 6.764,13.1697 8.6082,20.323 2.7344,10.5849 3.3576,21.8996 0.5827,32.5441 -1.9105,7.299 -5.7205,14.2245 -11.4903,19.174 -1.377,1.1765 -2.8212,2.3124 -4.3787,3.2265 -30.25,7.5713 -61.5336,9.6896 -92.61,10.3938 -4.3337,0.09 -8.6677,0.157 -13.002,0.207 0.052,0 -1.1335,0.01 -1.5573,0.014 -1.6326,0.014 -3.2652,0.027 -4.8978,0.041 -0.1799,-0 -1.1976,0.01 -1.7023,0.01 -27.9898,0.1493 -55.9945,-0.2662 -83.968,0.9212 -20.7673,-0.2442 -41.5357,-0.4672 -62.3023,-0.7247 -21.7329,-2.0022 -43.5796,-1.8281 -65.3809,-2.0632 -0.036,-0 -1.1432,-0.015 -1.5807,-0.021 -19.3687,-0.2576 -38.8419,-0.7797 -57.9532,-4.2114 -8.3509,-1.5134 -16.6092,-3.6206 -24.5696,-6.5797 -24.3818,-41.2636 -41.5171,-86.3913 -54.7907,-132.3247 -9.213,-31.9052 -16.5973,-64.306 -23.2777,-96.8257 -2.1524,-20.1849 -6.6388,-40.0652 -8.2115,-60.3196 -0.6464,-8.9606 -0.8098,-18.0728 1.0343,-26.9112 1.25,-5.9445 3.7493,-11.827 8.2157,-16.073 1.568,-1.4815 3.2527,-2.8981 5.1428,-3.9394 28.0105,-11.0337 57.4809,-17.899 87.1434,-22.7164 0.6376,-0.1033 1.2675,-0.2091 1.4346,-0.2355 39.4164,-6.2948 79.2529,-9.2341 118.9273,-13.3698 16.4727,-1.7192 32.9364,-3.591 49.3197,-6.0231 10.5794,-2.3337 21.3722,-4.0449 32.2359,-3.8729 z m 1152.8243,110.0059 c 4.5609,0.016 9.0895,0.6132 13.5917,1.289 6.5116,-0.4278 13.0412,-0.6736 19.5653,-0.408 25.6517,0.9693 51.175,7.9394 73.3976,20.8748 17.3521,10.1015 32.6077,24.0734 43.2931,41.1416 2.9981,4.7906 5.6888,9.7904 7.8977,14.9918 7.6785,26.2428 10.8672,53.7038 10.2716,81.0119 -0.7792,37.6016 -8.3491,74.7463 -18.9421,110.7271 -0.8105,2.7561 -1.6487,5.5041 -2.491,8.2507 0.037,-0.1092 -0.3345,1.074 -0.4574,1.4705 -2.3689,7.5674 -4.8179,15.1141 -7.4531,22.5917 -13.224,28.5116 -31.7462,54.2347 -52.2193,77.9549 -24.5623,28.4201 -51.9153,54.2277 -78.8744,80.3267 -6.7136,6.4754 -13.374,13.0097 -20.0351,19.5365 -22.2975,17.7443 -42.3816,38.0627 -64.5153,56.0006 -12.3766,9.9663 -25.4721,19.2842 -40.0407,25.7814 -11.2408,5.0222 -23.4586,8.0579 -35.8062,8.0911 -2.5664,0.063 -5.1369,-0.1918 -7.6963,-0.1549 -8.1778,1.264 -16.4532,1.9496 -24.7314,1.7967 -30.4682,-0.4516 -60.8122,-11.0548 -84.5512,-30.2376 -15.7179,-12.6383 -28.3956,-29.1228 -36.1517,-47.7686 -1.7969,-4.2325 -3.2506,-8.5986 -4.6115,-12.9865 -3.862,-10.3123 -5.6331,-21.4281 -4.8835,-32.4274 0.9219,-14.3969 5.7358,-28.2671 12.1409,-41.0953 8.3688,-16.6988 19.3336,-31.9332 30.9194,-46.5259 8.7678,-11.0295 18.0204,-21.6593 27.1903,-32.3527 24.1676,-28.7803 45.4763,-59.8339 65.4143,-91.6544 26.8261,-42.7814 51.2491,-87.0171 78.1764,-129.7365 18.7389,-29.7097 38.7861,-58.6915 61.6417,-85.4075 1.7071,-2.5181 3.3315,-5.1162 5.3895,-7.3755 4.9664,-5.7375 11.7194,-9.8165 19.0261,-11.7986 5.0491,-1.4097 10.3118,-1.9519 15.5446,-1.9076 z m 355.5546,636.8964 c 2.7554,0.063 5.4715,0.768 7.9688,1.918 40.9504,55.551 79.5876,112.8129 115.6294,171.6691 24.6564,40.2447 48.0742,81.2482 70.1907,122.9429 1.1278,2.0848 2.7295,3.8794 3.8264,5.9891 2.8439,5.0013 4.028,10.8619 3.562,16.5822 -0.6764,8.6136 -4.1057,16.7673 -8.4486,24.1464 -4.1247,6.9762 -9.2599,13.3123 -14.9231,19.0937 -28.2373,30.8854 -56.4572,61.908 -87.5137,90.0196 -24.6016,22.2493 -51.0798,42.6847 -80.2671,58.5867 -1.1703,0.6301 -2.3345,1.2717 -3.513,1.8863 -22.8542,-19.6961 -44.6539,-40.5897 -65.75,-62.1504 -0.1229,-0.1211 -0.8362,-0.857 -1.1882,-1.2166 -47.2089,-48.3982 -90.9549,-99.99 -135.9017,-150.4548 -1.5969,-1.6425 -2.681,-3.6834 -4.084,-5.4831 -8.6075,-11.7931 -19.1956,-21.9369 -28.3097,-33.3142 -3.0265,-3.8975 -6.0545,-7.9163 -7.8762,-12.5423 -0.4467,-1.2338 -0.9217,-2.6649 -0.2438,-3.9147 0.9002,-1.9672 2.2652,-3.6739 3.3346,-5.5484 25.369,-40.6705 56.5445,-77.3629 89.4467,-112.0903 30.8411,-32.5391 63.3115,-63.4695 95.1504,-95.0176 8.5445,-8.9415 17.6469,-17.5248 28.2031,-24.0644 5.5335,-3.3369 11.5485,-6.2684 18.0547,-6.9452 0.8811,-0.087 1.7675,-0.1106 2.6523,-0.092 z m 414.7286,619.0547 c 17.6345,19.0438 34.6175,38.6864 51.0332,58.7891 0.036,0.051 0.7228,0.889 1.0007,1.2326 10.5814,12.9831 20.9181,26.1645 31.0618,39.492 0.1131,0.1563 0.7233,0.9551 1.0289,1.3601 37.7102,49.7013 72.5782,101.4815 106.5199,153.8059 0.2046,0.3097 0.653,1.0077 0.951,1.466 7.3355,11.2461 14.5788,22.5741 20.9054,34.4274 6.9401,13.0146 13.0502,26.6114 16.5145,40.9969 2.4544,10.3626 3.4809,21.3157 1.0373,31.7827 -1.8382,8.0407 -5.9218,15.4536 -11.293,21.6727 -16.0852,19.6954 -31.5032,40.0035 -49.1571,58.3523 -11.904,12.3091 -24.8924,23.8058 -39.8162,32.3371 -7.0071,3.9876 -14.4239,7.3208 -22.1673,9.5821 -5.1074,0.3694 -10.4069,0.399 -15.2877,-1.3502 -2.4475,-0.8367 -4.5294,-2.544 -5.9391,-4.7009 -45.545,-60.7979 -90.0262,-122.4523 -138.3212,-181.1288 -15.0944,-18.3602 -30.5708,-36.4097 -46.5041,-54.0467 -13.583,-18.1128 -29.9788,-33.8394 -44.3674,-51.2779 -7.3327,-8.9892 -14.2606,-18.516 -18.7336,-29.2897 -0.2215,-0.6529 -0.6291,-1.3145 -0.7073,-1.9741 8.6641,-21.3951 22.1241,-40.5025 37.3073,-57.7543 17.8986,-20.3145 38.1694,-38.3432 58.472,-56.191 8.5944,-7.5319 17.1963,-15.0614 25.7345,-22.6534 10.9688,-6.8903 20.3687,-15.9022 30.8609,-23.4457 2.2911,-1.6131 4.639,-3.1721 7.1751,-4.3767 0.8972,0.9642 1.7943,1.9283 2.6915,2.8925 z m 534.7128,676.2735 c 20.2023,22.276 39.7438,45.1435 58.8887,68.332 0.1924,0.2278 0.7634,0.9263 1.1012,1.3349 50.7705,61.599 98.8737,125.3389 149.6079,186.9673 10.9024,13.2401 21.9222,26.3841 33.1132,39.3814 -5.9468,17.7672 -15.1313,34.2057 -24.5582,50.3179 -0.6954,1.1837 -1.3909,2.3675 -2.0863,3.5512 0.015,-0.018 -0.58,0.978 -0.7975,1.3467 -1.5734,2.5963 -3.0542,5.2544 -4.6857,7.812 -13.8177,18.4795 -26.0097,38.1446 -40.4615,56.1546 -8.5077,10.5132 -17.8485,20.5735 -29.1082,28.1883 -3.6684,2.465 -7.5341,4.644 -11.5839,6.4184 -2.464,-1.9446 -4.8322,-4.0204 -7.1191,-6.1656 -7.0836,-8.1097 -14.0766,-16.2982 -21.0137,-24.5337 -0.065,-0.085 -0.738,-0.881 -1.0258,-1.2265 -41.6987,-49.6788 -80.9692,-101.3172 -121.1869,-152.1851 -29.9682,-37.9131 -60.4861,-75.4262 -92.7873,-111.3877 -0.8595,-0.925 -1.5891,-2.0042 -2.7672,-2.5505 -2.6536,-1.7233 -5.765,-3.1542 -7.3527,-6.0514 -1.9079,-3.5105 -2.3612,-7.5783 -2.6969,-11.4978 -0.4617,-6.7445 -0.082,-13.5078 0.2446,-20.2494 0.066,-1.2046 0.1378,-2.6632 0.206,-3.9654 0.1897,-3.3717 0.2989,-6.7539 0.4416,-10.1232 2.7287,-9.9491 8.8184,-18.6066 15.8387,-26.0151 9.4818,-9.9745 20.5828,-18.208 31.7087,-26.2342 11.9344,-8.5754 24.122,-16.8207 35.5882,-26.0273 11.4568,-5.8059 21.4176,-14.0088 31.9851,-21.2102 2.2629,-1.516 4.5564,-2.9957 6.968,-4.2664 1.1797,1.2949 2.3594,2.5899 3.539,3.8848 z m 1357.6368,736.5058 c 14.5822,0.1865 29.2198,3.8011 41.8584,11.1694 5.48,3.1369 10.5019,7.0129 15.1611,11.2623 3.9354,2.6961 7.6678,5.737 10.7591,9.3892 6.7739,7.8189 10.6047,17.7867 12.3571,27.8879 2.2514,12.9375 1.5653,26.224 -0.5617,39.129 -0.2532,1.8655 -0.8239,3.7086 -0.6354,5.6055 0.3446,7.3687 -0.4109,14.8229 -2.6545,21.8679 -3.648,11.7477 -11.0669,22.0452 -20.1183,30.2549 -11.9843,10.8518 -26.6343,18.4936 -42.0036,23.3173 -13.7361,4.2786 -28.2189,6.3075 -42.6017,5.5073 -9.6136,-0.2145 -19.2845,-0.1632 -28.8004,-1.7364 -3.9742,-0.084 -7.9755,-0.3211 -11.8452,-1.3008 -7.7392,-1.8122 -14.7295,-6.1709 -20.2065,-11.876 -7.4553,-7.722 -12.5601,-17.4163 -16.1547,-27.4561 -4.6762,-13.3166 -6.8176,-27.508 -6.44,-41.6104 0.1831,-4.7169 0.2915,-9.4498 1.0228,-14.1229 2.1216,-14.611 8.2732,-28.4885 17.0381,-40.3176 12.3753,-16.7182 29.5706,-29.6323 48.6564,-37.7565 14.2349,-6.0331 29.6774,-9.4281 45.169,-9.214 z" />
      <path
         id="path423"
         style="fill:#ffffff;stroke-width:8.73436"
         d="m 2988.1133,2582.5176 c -22.9825,0.5243 -45.543,7.1835 -65.9557,17.5588 -18.449,9.3917 -35.373,21.7737 -49.9338,36.4862 -2.8935,3.4696 -5.5139,7.1583 -8.1411,10.8308 -14.7664,21.0944 -25.6114,44.7699 -33.1659,69.3409 -4.956,15.9497 -8.5949,32.2828 -11.4617,48.7286 0.029,-0.1843 -0.1881,1.0972 -0.2573,1.4979 -2.0552,12.0431 -3.7025,24.1521 -5.1392,36.2833 0.012,-0.1258 -0.1293,1.1158 -0.1776,1.5267 -1.0159,8.6656 -1.9248,17.3433 -2.8185,26.0222 -0.046,0.4844 -0.1349,1.327 -0.1972,1.9486 -2.0826,20.3892 -4.0831,40.7967 -7.0985,61.0746 -1.0523,8.2465 -1.9758,16.5094 -2.9975,24.7599 -2.7176,22.7595 -4.9336,45.759 -3.0094,68.6779 1.5447,18.2934 5.8771,36.5986 14.7151,52.8019 6.0995,11.3049 14.2921,21.4839 24.1241,29.7594 7.1162,6.0662 15.0511,11.1437 23.4699,15.2039 38.5995,19.4505 77.6526,37.9932 117.0091,55.8597 0.2515,0.1176 1.0933,0.495 1.5717,0.7125 29.9633,13.5799 60.1056,26.7626 90.3717,39.6527 0.1728,0.069 1.1031,0.467 1.5693,0.6635 105.5394,44.8946 212.5559,86.1807 319.1923,128.3667 33.0854,13.0768 66.1422,26.2295 99.0875,39.6549 20.6831,9.4586 41.8866,17.7106 63.0884,25.9185 0.993,0.3881 2.238,0.8669 3.3279,1.2898 26.8343,10.3991 53.7617,20.7133 79.5897,33.4665 22.0017,10.9048 43.2901,23.6554 61.7627,39.9435 8.4532,7.4116 16.2284,15.5879 23.2347,24.3794 1.0213,1.2969 2.1549,2.5394 3.1064,3.87 1.5257,6.9148 2.9279,13.868 5.0232,20.6403 10.3229,34.1232 31.369,64.6606 58.6386,87.4863 22.4709,18.7936 49.4908,32.4611 78.3555,37.9379 5.5365,1.0607 11.1338,1.8163 16.7468,2.3096 2.0013,-0.223 3.9626,-0.7461 5.9561,-1.0435 45.3083,-8.2484 89.7381,-20.676 133.5884,-34.6287 13.9174,-4.4268 27.7856,-9.0062 41.6348,-13.6414 0.2731,-0.095 1.1375,-0.383 1.6378,-0.5522 28.7762,-9.6474 57.4518,-19.5958 86.2976,-29.0343 4.5641,-1.4111 9.184,-2.6534 13.6506,-4.3627 22.83,-8.3758 43.3548,-22.6392 59.6782,-40.6142 26.1484,-28.7105 42.0367,-66.8349 42.9849,-105.7384 0.5305,-22.0969 -3.9339,-44.3754 -13.5077,-64.3328 -3.3064,-6.9495 -7.2804,-13.5609 -11.5971,-19.9251 -25.9626,-42.6546 -57.7579,-81.4442 -91.6216,-118.0256 -33.9316,-36.6859 -69.9688,-71.3317 -105.0044,-106.9443 -3.3836,-3.4923 -6.4454,-7.2807 -9.8748,-10.7312 -15.2809,-15.8214 -33.3142,-28.8285 -52.6277,-39.2807 -23.7343,-12.8937 -49.1993,-22.164 -74.7208,-30.816 -0.4594,-0.1593 -0.783,-0.268 -1.4791,-0.5021 -15.018,-5.0866 -30.0985,-10.0116 -44.9337,-15.6158 -25.9528,-11.073 -51.7902,-22.4152 -77.5108,-34.0171 -57.6961,-26.002 -114.8411,-53.2111 -171.6685,-81.0557 -8.8586,-4.3326 -17.7009,-8.6985 -26.5447,-13.0612 -0.5356,-0.2694 -1.3741,-0.6811 -2.0259,-1.0051 -11.9109,-5.8922 -23.8149,-11.7984 -35.7045,-17.7331 -1.0457,-0.5274 -2.3254,-1.1633 -3.461,-1.7324 -70.8948,-35.4105 -141.472,-71.4515 -212.2344,-107.1251 -1.2961,-0.6482 -2.7989,-1.4085 -4.1745,-2.0999 -69.7188,-35.1353 -139.6545,-69.8564 -210.259,-103.1833 -0.2535,-0.1146 -1.0862,-0.5103 -1.5624,-0.733 -21.4627,-10.126 -43.2685,-20.2333 -65.0556,-30.1683 -5.6439,-3.4228 -11.5293,-6.4631 -17.677,-8.8793 -13.6947,-5.4664 -28.4547,-8.1536 -43.1906,-8.0984 -0.8747,-0.01 -1.7492,0.019 -2.6238,0.028 z" />
      <path
         id="path425"
         style="display:inline;fill:#ffffff;stroke-width:8.73436"
         d="m 7190.8867,3374.6953 c -79.7169,50.6239 -157.5402,104.1543 -234.7667,158.4798 -60.782,42.7639 -121.223,86.0105 -181.993,128.7917 -0.3991,0.2756 -1.0917,0.7664 -1.6032,1.1245 -23.7794,16.7475 -47.654,33.3589 -71.5498,49.9397 -1.8461,1.2826 -3.6923,2.5653 -5.5385,3.8479 3.6266,8.8257 7.1754,17.6838 10.8522,26.4884 8.0699,18.7468 19.4219,35.9 32.1135,51.8169 14.5198,18.3365 30.8396,35.1417 45.6878,53.2019 2.0243,2.441 3.9835,4.9321 5.8331,7.5078 1.424,1.8796 2.8921,3.725 4.3591,5.5709 -7.0954,1.9361 -14.1984,3.8438 -21.3066,5.7325 -0.058,0.019 -1.1079,0.2915 -1.5348,0.4047 -14.0691,3.7184 -28.1675,7.3253 -42.2816,10.8687 -0.2025,0.047 -1.1632,0.2889 -1.6589,0.4112 -3.1124,0.7744 -6.2248,1.5488 -9.3372,2.3232 -0.2372,0.063 -1.1646,0.2871 -1.6678,0.4123 -3.1153,0.7662 -6.2306,1.5324 -9.3459,2.2986 -0.2688,0.061 -1.1662,0.2831 -1.6767,0.406 -6.7973,1.6591 -13.5985,3.302 -20.4014,4.9378 -0.3044,0.077 -1.1676,0.2791 -1.6864,0.4041 -106.6747,25.5402 -214.1111,48.0775 -319.8223,77.4996 -71.9066,20.0022 -143.0275,43.2389 -211.7756,72.4061 -14.0836,5.9563 -28.0408,12.2081 -41.9115,18.6431 -57.0399,24.9259 -111.7489,55.026 -163.9937,88.8294 -70.8578,45.8465 -137.1716,98.4228 -200.09,154.5932 -25.5115,22.7604 -50.4548,46.151 -75.0114,69.9366 -5.1485,4.9637 -10.297,9.9273 -15.4454,14.891 14.704,19.6876 29.4024,39.3795 44.2088,58.9903 28.2982,37.5432 56.7343,74.991 84.1506,113.1874 8.67,19.3323 21.6354,36.6323 37.3312,50.8233 22.5126,20.381 50.2792,34.5243 79.4957,42.465 8.6828,2.3551 17.5207,4.1709 26.4257,5.4164 8.1655,-0.072 16.3287,-0.6635 24.4013,-1.9074 20.0166,-3.0045 39.3014,-9.5145 58.0646,-16.9381 17.6385,-6.9229 34.9347,-14.7702 52.972,-20.6372 15.5086,-4.9209 31.0304,-9.8005 46.5536,-14.6751 0.4655,-0.1422 1.2732,-0.3977 1.8698,-0.5833 52.9049,-16.5781 105.8926,-32.8907 158.9193,-49.0749 1.8122,-0.5552 3.8262,-1.1664 5.716,-1.7431 130.918,-39.9085 262.0731,-79.0329 392.9228,-119.1649 44.2303,-13.5773 88.4346,-27.2428 132.5656,-41.1408 1.8262,-0.5973 4.0224,-1.3123 5.6153,-1.8355 41.251,-13.4105 82.7755,-25.9559 124.3111,-38.4497 86.5599,-26.0307 173.4576,-51.9464 257.7996,-84.7975 10.3231,-4.0167 20.5977,-8.1615 30.8449,-12.3643 17.3094,-5.3991 33.4656,-14.4551 47.0718,-26.4433 15.0225,-13.162 26.8993,-29.6854 35.5428,-47.6389 10.5479,-21.9242 16.508,-45.8927 18.6908,-70.0763 0.8485,-9.4611 1.0692,-18.9726 0.7734,-28.4652 0.313,-184.7981 -12.9139,-369.5247 -37.3335,-552.6698 -0.8614,-3.7998 -1.7127,-7.6096 -2.2794,-11.469 -2.0365,-13.3085 -2.7406,-26.7695 -4.109,-40.1531 -1.6482,-16.7574 -4.1258,-33.6037 -9.9126,-49.4912 -4.8882,-13.5726 -12.387,-26.3184 -22.5992,-36.5714 -7.5048,-7.6122 -16.4143,-13.7703 -26.0153,-18.439 -4.6705,-2.3708 -9.3409,-4.7416 -14.0114,-7.1124 -4.8112,3.0638 -9.6224,6.1276 -14.4336,9.1914 z" />
    </g>
    <g
       id="g438"
       inkscape:label="spots">
      <path
         d="m 6442,6668 c -13,-7 -47,-46 -75,-87 -62,-89 -187,-241 -199,-241 -4,0 -8,-22 -8,-49 0,-34 6,-56 21,-75 19,-25 151,-116 167,-116 14,0 78,74 176,202 54,70 104,132 113,136 13,8 14,14 4,43 -21,58 -85,152 -120,176 -38,26 -46,27 -79,11 z"
         id="path6" />
      <path
         d="m 5872,6027 c -13,-6 -32,-28 -43,-49 -25,-49 -139,-191 -195,-244 -59,-55 -60,-91 -4,-162 45,-57 153,-142 178,-142 28,1 55,29 146,152 146,200 166,247 129,315 -26,48 -93,114 -130,129 -38,16 -50,17 -81,1 z"
         id="path8" />
      <path
         d="m 5289,5358 c -177,-193 -189,-208 -189,-234 0,-39 36,-93 94,-144 28,-25 70,-67 91,-93 54,-65 86,-81 129,-67 29,9 48,34 131,166 119,192 123,200 96,251 -38,73 -201,213 -249,213 -10,0 -56,-41 -103,-92 z"
         id="path10" />
      <path
         d="m 4796,4858 c -50,-14 -108,-72 -124,-126 -18,-60 -3,-107 60,-178 59,-67 98,-127 153,-231 20,-40 55,-89 76,-108 33,-30 46,-35 87,-35 96,0 169,39 199,105 36,79 15,233 -42,325 -34,53 -213,220 -259,241 -45,20 -90,22 -150,7 z"
         id="path12" />
      <path
         d="m 3800,4580 c -153,-8 -155,-9 -177,-36 -12,-16 -36,-70 -52,-122 -87,-267 -64,-317 156,-333 64,-5 130,-11 147,-14 49,-10 82,9 112,62 15,26 54,93 86,148 32,54 65,121 74,148 15,45 15,52 1,83 -32,65 -95,77 -347,64 z"
         id="path14" />
      <path
         d="m 4353,4460 c -12,-10 -36,-56 -54,-102 -19,-46 -53,-121 -77,-167 -44,-84 -55,-138 -33,-165 14,-16 212,-29 401,-26 152,2 170,9 170,67 0,46 -26,94 -112,205 -40,51 -86,111 -102,132 -15,21 -42,46 -60,57 -41,25 -106,25 -133,-1 z"
         id="path16" />
    </g>
    <path
       id="path2"
       d="m 7145.8379,1924.7559 c -19.3259,0.3627 -38.4797,4.663 -56.3698,11.9037 -25.2922,10.2215 -48.0904,25.8638 -68.3918,43.9477 -11.1349,9.9796 -21.923,20.5748 -30.2577,33.0676 -8.3677,12.4734 -14.6129,26.2151 -20.2562,40.0912 -8.5871,21.4129 -15.6511,43.3967 -22.3905,65.4489 -10.6813,35.2493 -20.3008,70.8079 -29.8286,106.3826 -22.6074,83.3909 -44.8824,166.872 -67.7556,250.1905 -4.3391,15.833 -8.7523,31.6457 -13.1428,47.4643 -11.4011,42.8247 -23.3745,85.4955 -35.6761,128.0697 -10.3065,35.588 -20.8268,71.1162 -31.8589,106.4867 -6.1304,19.7015 -12.6214,39.2879 -18.9562,58.9241 -14.4219,44.4665 -28.8441,88.9329 -43.2642,133.3999 -49.4569,14.4317 -98.921,28.8388 -148.3729,43.287 -17.4832,5.4218 -34.6537,11.7954 -51.7267,18.3811 -31.6745,12.312 -62.9514,25.6387 -93.8599,39.7608 -16.2057,7.4363 -32.3237,15.0743 -48.2037,23.1854 -41.2795,21.5486 -82.7999,42.6316 -124.3505,63.6513 -47.5454,23.9972 -95.1578,47.8628 -142.916,71.434 -54.3203,26.5278 -108.5692,53.2028 -162.6735,80.1687 -17.8253,8.8885 -35.619,17.8409 -53.3224,26.97 -50.9795,26.0136 -102.0798,51.7895 -153.1458,77.6323 -44.0127,22.271 -88.0841,44.4284 -131.8943,67.0966 -28.4578,14.7224 -56.8687,29.5411 -85.0139,44.8546 -9.7533,5.3535 -19.5322,10.6742 -29.0434,16.4513 -5.8953,3.74 -11.9163,7.2779 -17.8828,10.9029 -42.6548,25.6511 -85.4292,51.1028 -128.2236,76.5202 -10.6227,6.3657 -21.4007,12.4664 -32.1076,18.6883 -49.0435,28.3462 -98.087,56.6924 -147.1302,85.0389 -28.0145,-23.0208 -56.0486,-46.0181 -84.0503,-69.0543 -8.5386,-7.1871 -17.8594,-13.3747 -27.2836,-19.3268 -19.1266,-11.9405 -39.0532,-22.5448 -59.2287,-32.5908 -31.718,-15.7144 -64.1766,-29.9001 -97.0139,-43.103 -44.006,-17.6542 -88.7272,-33.5256 -134.0067,-47.5948 -34.1776,-10.6074 -68.6939,-20.1478 -103.5533,-28.2504 -18.0549,-4.3252 -36.1796,-8.4945 -53.8516,-14.2342 -16.0612,-5.2106 -31.6804,-11.9926 -45.9802,-21.0207 -13.9784,-8.764 -26.6086,-19.594 -37.7437,-31.7501 -13.0592,-14.2038 -24.1847,-30.0188 -35.2712,-45.7681 -6.0709,-8.7065 -12.2039,-17.3712 -18.5874,-25.8524 -17.9632,-23.9569 -36.7349,-47.2946 -55.7119,-70.4523 -34.3984,-41.868 -69.6673,-83.0152 -105.4495,-123.7047 -33.387,-37.9037 -67.2228,-75.4189 -101.8562,-112.1895 -20.5454,-21.7627 -41.3396,-43.3078 -63.0081,-63.9601 -18.2503,-17.4335 -36.8267,-34.5772 -56.611,-50.2708 -15.2695,-12.1112 -31.4126,-23.1681 -48.556,-32.4644 -22.5877,-12.3088 -46.5543,-21.8394 -70.7167,-30.5568 -17.0713,-6.1586 -34.3183,-11.8125 -51.5758,-17.4227 -38.1649,-12.6833 -75.551,-27.5992 -112.4757,-43.5069 -42.7176,-18.4496 -84.8038,-38.3334 -126.4785,-59.0228 -52.3431,-26.0155 -104.0256,-53.3463 -155.2241,-81.5433 -67.2868,-37.0741 -133.7375,-75.655 -199.5133,-115.3447 -70.3782,-42.4765 -139.9785,-86.2387 -208.8491,-131.1172 -22.7485,-14.9074 -45.7353,-29.4835 -69.4243,-42.8597 -16.5746,-9.3008 -33.4972,-18.0826 -51.1891,-25.0778 -14.8014,-5.843 -30.2942,-10.2817 -46.2083,-11.5586 -18.6796,-1.5503 -37.4209,0.9119 -55.7414,4.4529 -8.2929,1.674 -16.6114,3.3186 -24.7125,5.7888 -22.3835,6.6904 -43.2218,18.1642 -61.3118,32.8955 -26.0416,21.1656 -46.4765,48.6452 -61.5521,78.4946 -16.0778,31.8775 -26.2347,66.5524 -31.4934,101.8093 -3.7842,24.5812 -7.6399,49.1514 -11.4519,73.7283 l -23.5023,151.0809 c -63.4673,-52.0496 -126.9482,-104.0826 -190.4067,-156.1427 -11.4785,-9.6531 -22.5286,-19.8004 -33.5977,-29.9161 -28.9332,-26.6086 -57.5239,-53.5867 -86.045,-80.6357 -48.0411,-45.5754 -95.8112,-91.436 -143.4275,-137.4549 -31.8913,-30.8251 -63.682,-61.7539 -95.5524,-92.6006 -0.1796,-0.1784 -0.8619,-0.8345 -1.2351,-1.1968 -43.9006,-42.4776 -87.8331,-84.9238 -132.1405,-126.9774 -29.4885,-27.9433 -59.1034,-55.7633 -89.4238,-82.8059 -17.8853,-15.8714 -35.9787,-31.5403 -54.9475,-46.1132 -13.896,-10.6825 -28.4061,-20.6131 -43.7728,-29.0693 -8.5175,-4.7068 -17.2017,-9.1121 -25.993,-13.2836 -23.2222,-10.8125 -48.2785,-17.8271 -73.8312,-19.9661 -26.4344,-2.2753 -53.2299,0.6766 -78.6981,8.0216 -13.11,3.7684 -25.9181,8.6016 -38.2416,14.4503 -18.9446,9.1719 -36.414,21.1558 -52.6683,34.4737 -23.554,19.4048 -44.5901,41.7685 -63.2286,65.906 -19.8549,25.7966 -37.0383,53.7024 -50.5991,83.312 -9.9833,21.9189 -18.0367,44.8192 -22.656,68.4921 -2.8977,14.5339 -3.6359,29.4024 -3.5915,44.1921 0.1467,23.3792 2.4811,46.7122 6.2794,69.7694 4.0431,24.1635 9.7134,48.0911 17.6216,71.2919 3.3221,9.7412 7.1203,19.3204 11.452,28.6577 3.9281,8.5531 8.4858,16.7983 13.0309,25.0343 12.7134,22.7403 26.1755,45.0514 39.7571,67.2808 5.7459,9.3895 11.5389,18.7501 17.3509,28.0988 -0.085,-0.1301 0.5913,0.9495 0.8075,1.2981 1.393,2.2346 2.7859,4.4692 4.1788,6.7038 -0.053,-0.093 0.5978,0.9543 0.8196,1.3065 33.492,53.5432 67.6844,106.6444 102.0641,159.6208 60.4169,92.9912 121.531,185.5272 182.8519,277.9241 43.3001,65.2021 86.7058,130.3358 129.4763,195.8874 30.5576,46.8794 60.7101,94.0349 89.5352,142.0039 7.4847,12.4016 14.8202,24.8921 22.2198,37.3444 21.3084,35.7796 42.9873,71.3478 65.6457,106.2916 16.1437,24.8229 32.7365,49.3816 50.666,72.9583 10.3894,13.568 21.1783,26.8818 33.1805,39.0682 6.3728,6.4007 13.0812,12.5703 20.7556,17.3914 37.9686,24.9387 78.0955,46.8116 120.465,63.3225 19.7603,7.718 39.9856,14.2376 60.524,19.547 23.0387,6.4372 45.9586,13.3157 68.6585,20.8652 9.9218,3.3326 19.8359,6.746 29.4055,11.0062 1.8271,0.8017 3.7173,1.4808 5.3704,2.6213 3.4337,2.1088 6.9666,4.0635 10.2389,6.4232 10.0797,6.9019 18.8686,15.4757 27.2866,24.2783 12.8112,13.4877 24.968,27.5774 37.0623,41.706 26.4101,31.0239 52.1617,62.6017 77.6779,94.3628 29.4517,36.704 58.5273,73.7106 87.1638,111.0543 23.9107,31.2298 47.5628,62.6646 70.457,94.6495 8.2789,11.5579 16.3927,23.2333 24.3641,35.0052 11.9565,17.4765 23.3507,35.3293 34.6469,53.2371 22.4527,35.7027 44.3147,71.7743 65.8358,108.0452 15.6085,26.3796 31.0751,52.8472 45.988,79.6275 6.4814,11.7368 12.9727,23.4832 18.7205,35.6018 3.7896,8.0053 7.0431,16.2973 9.1583,24.9105 0.9524,3.3574 1.3887,6.8303 2.0841,10.2452 0.4731,2.4257 0.4717,4.9145 0.7294,7.3688 0.2194,3.0406 0.537,6.0825 0.6952,9.1224 -0.7112,6.6887 -1.3693,13.3886 -2.1153,20.0701 -2.2703,7.034 -4.488,14.0917 -6.7935,21.1101 -3.7587,6.3687 -7.4729,12.7701 -11.2588,19.1187 -4.4424,4.8682 -8.8527,9.7711 -13.3126,14.62 -4.5021,3.4601 -8.9594,6.9879 -13.4883,10.4072 -4.0146,2.2094 -7.9907,4.4978 -12.0295,6.6577 -3.3768,1.3923 -6.7184,2.8811 -10.1171,4.2135 -3.0549,0.9069 -6.0649,1.9786 -9.1504,2.7731 -3.1883,0.7358 -6.3561,1.5734 -9.6024,2.0199 -4.2865,0.7681 -8.6318,1.1548 -12.9757,1.4146 -5.5796,0.2501 -11.1746,0.1628 -16.7394,-0.3219 -13.1972,-1.0925 -26.1723,-3.9465 -38.9948,-7.1602 -20.2132,-5.1541 -40.14,-11.3658 -59.9416,-17.9085 -27.2653,-9.0596 -54.2763,-18.894 -80.9373,-29.6043 -14.1161,-5.7113 -28.157,-11.6288 -41.9312,-18.1267 -26.3879,-12.5313 -51.8956,-26.9696 -75.9317,-43.5877 -25.7871,-17.7754 -49.8497,-37.9698 -72.4362,-59.6456 -28.5678,-27.4059 -54.9285,-57.0127 -80.3319,-87.346 -29.2862,-35.0611 -57.3158,-71.1489 -84.9571,-107.5139 -1.4456,-1.9051 -2.8912,-3.8101 -4.3368,-5.7152 0.53,0.6884 -0.4756,-0.6232 -0.6751,-0.8847 -18.0956,-23.6463 -36.3604,-47.1784 -55.5387,-69.9615 -15.7292,-18.6107 -32.0698,-36.7974 -50.2419,-53.0733 -12.5389,-11.2485 -26.0708,-21.371 -40.3082,-30.368 -18.6568,-11.8017 -38.2668,-22.0024 -58.0302,-31.8039 -35.8648,-17.3029 -72.6353,-32.8412 -110.4739,-45.3046 -28.3283,-9.2902 -57.2777,-16.906 -86.7798,-21.3701 -21.0601,-3.1536 -42.4488,-4.7292 -63.7261,-3.2487 -10.8197,0.8881 -21.5985,2.2526 -32.3248,3.9195 -37.9534,5.9421 -75.1906,16.7275 -110.2168,32.5477 -33.9768,15.3013 -65.7905,35.3006 -94.5813,58.9376 -15.6351,12.8027 -30.3662,26.689 -44.2727,41.3459 -26.5789,27.8654 -49.4946,59.1276 -68.9026,92.3598 -19.8538,34.0881 -36.0827,70.318 -47.9425,107.9508 -9.0083,28.7091 -15.5108,58.2814 -18.231,88.2739 -1.9135,21.6028 -1.9066,43.4828 1.5086,64.9394 1.0847,6.6001 2.4294,13.1732 4.3363,19.5878 1.2753,4.0088 4.1492,7.3136 7.5432,9.7116 6.2284,4.4225 13.6656,6.7929 21.1063,8.2026 14.2269,2.5675 28.9036,1.468 42.9561,-1.6222 7.448,-1.6638 14.7588,-3.9175 21.9183,-6.5514 9.7639,-3.6968 19.3452,-8.5439 26.8581,-15.9299 7.506,-7.3732 12.5229,-16.8478 16.4093,-26.5235 2.2002,-5.6137 4.0497,-11.3568 6.1894,-16.9936 15.5887,-42.0847 35.6315,-82.8179 62.4256,-118.9543 19.4181,-26.2063 42.4758,-49.8383 68.9358,-68.976 23.8827,-17.32 50.4889,-30.8815 78.5654,-39.9508 31.1252,-10.1114 63.9243,-14.6924 96.6139,-14.5687 18.5087,-0.027 37.0473,0.9717 55.3659,3.6958 23.6026,3.4579 46.8136,9.8242 68.697,19.3556 23.416,10.1432 45.2054,23.8449 65.0133,39.8942 24.2081,19.569 45.5736,42.3905 65.4788,66.2542 11.4546,13.7359 22.3917,27.8922 33.161,42.1687 33.6691,44.277 68.3924,87.7943 105.2945,129.4322 43.1303,48.6117 89.4255,94.7103 140.9762,134.4215 29.844,23.0411 61.4307,43.8226 94.4115,62.0939 42.2891,23.4604 86.7641,42.7949 132.1711,59.3516 39.6644,14.4522 80.0367,26.8934 120.7058,38.1839 25.6105,6.8479 51.2249,13.7173 77.0785,19.5991 19.2608,4.3624 38.7321,7.974 58.4238,9.6804 21.6689,1.9223 43.4447,2.0335 65.1827,1.9962 23.9424,-0.1447 47.884,-0.4062 71.826,-0.5999 31.5461,-0.2768 63.0921,-0.5537 94.6381,-0.8301 28.7824,22.5665 57.5503,45.1518 86.3408,67.7079 20.8392,16.1628 42.6499,31.1544 65.8055,43.8186 27.4998,15.1271 56.7072,26.9316 86.4724,36.7801 35.0279,11.5734 70.8087,20.7041 106.7484,28.9518 39.0754,8.9024 78.3963,16.6858 117.7931,24.0209 -0.5789,-0.1112 0.9538,0.1748 1.2883,0.2354 59.0282,10.9423 118.2443,20.8365 177.4905,30.5166 76.7164,12.6426 153.2897,26.2174 229.4894,41.6917 56.1609,11.4318 112.1318,23.8711 167.6167,38.2512 45.05,11.7022 89.8021,24.6623 133.7624,39.9888 34.5583,12.0946 68.6574,25.6388 101.5476,41.7641 8.2495,4.087 16.4908,8.2073 24.4957,12.7598 16.9981,9.782 32.8946,21.3472 48.3061,33.4418 22.0784,17.4108 43.1689,36.0333 63.8958,55.0207 33.077,30.3949 65.1574,61.8542 96.8742,93.6597 49.2166,49.4486 97.4789,99.837 145.3648,150.5721 42.4779,45.0258 84.6102,90.3764 126.5771,135.8786 53.7188,58.0494 107.7038,115.8517 161.5314,173.7999 10.499,11.3084 20.9781,22.6354 31.4341,33.9834 24.5286,26.0605 48.6723,52.4805 72.6821,79.0186 11.5436,12.752 23.0131,25.5706 34.4726,38.398 32.992,36.6229 66.2407,73.0135 99.4859,109.4064 81.282,88.9067 162.8079,177.5899 244.3864,266.2245 0.6047,0.6518 1.4005,1.52 2.0786,2.2549 21.0924,22.9213 42.2086,45.8208 63.3578,68.6898 36.9942,40.0966 73.9294,80.2478 110.7387,120.5143 38.6882,42.3372 77.2451,84.7948 115.5859,127.4471 41.4285,46.079 82.6009,92.388 123.5469,138.8962 12.3287,14.0107 24.5534,28.1127 36.8382,42.162 25.664,29.3859 51.2885,58.807 77.1329,88.0346 5.6901,6.4451 11.436,12.8407 17.2943,19.1335 9.3604,10.2694 18.7288,20.5691 27.1279,31.6528 7.391,9.7387 13.8284,20.2734 18.4047,31.6343 1.2741,3.1676 2.433,6.3821 3.4066,9.6557 0.9791,2.9865 1.6322,6.0684 2.3923,9.1146 0.5682,3.4269 1.3821,6.8191 1.6305,10.291 0.2671,2.9119 0.7149,5.8133 0.6457,8.7447 0,2.6169 0.1593,5.2399 0.041,7.8528 -0.3266,3.5045 -0.5407,7.0246 -0.9362,10.5195 -0.7495,3.7689 -1.4097,7.5602 -2.2134,11.3154 -1.2807,3.9972 -2.4702,8.0296 -3.8103,12.0042 -1.8077,3.8965 -3.5314,7.8378 -5.3932,11.7057 -2.2258,3.606 -4.3977,7.2498 -6.6574,10.8322 -2.6674,3.3135 -5.2646,6.69 -7.9751,9.965 -2.7925,2.7342 -5.5133,5.5488 -8.3522,8.2313 -2.7692,2.1957 -5.4665,4.4899 -8.2836,6.6202 -2.7395,1.7768 -5.4202,3.6521 -8.1986,5.3642 -2.7254,1.4255 -5.3775,2.9998 -8.1515,4.3264 -3.0914,1.3675 -6.1434,2.8311 -9.3457,3.9277 -2.9926,1.1896 -6.0911,2.0806 -9.1774,2.9868 -0.9219,0.3135 -1.629,1.091 -2.4585,1.6019 -15.9862,11.5818 -31.4415,23.8754 -46.7723,36.3053 -21.6587,17.6505 -42.9601,35.7446 -63.7513,54.4106 -11.3196,10.2206 -22.5561,20.5522 -33.2007,31.4805 -5.3398,5.4799 -10.2214,11.3804 -15.1528,17.2238 -25.6443,30.7269 -48.2487,64.2404 -64.8745,100.7268 -12.0244,26.2912 -20.7992,54.0677 -25.998,82.5086 -3.1761,17.2061 -5.0403,34.6402 -5.9065,52.1106 -2.3469,52.4602 8.6163,105.1564 29.6492,153.1535 16.9444,38.6344 40.4397,74.4585 69.5915,104.9851 27.6236,28.892 60.5311,53.075 97.3785,68.82 9.7966,4.1705 19.853,7.6943 29.927,11.1269 33.5378,11.2795 68.3377,19.4936 103.7512,21.4782 24.5888,1.4226 49.3437,-0.301 73.5196,-4.9902 36.717,-7.0721 71.9109,-20.5231 105.4928,-36.7535 9.1545,-4.3883 18.1251,-9.1425 27.154,-13.7796 29.5598,-15.1035 59.7337,-29.2306 91.23,-39.8422 22.2731,-7.4951 45.2182,-13.1075 68.5456,-16.07 23.2105,-2.9905 46.7292,-3.3395 70.048,-1.4816 28.0186,2.1962 55.6972,7.45 83.0482,13.7778 19.2191,4.3041 38.6026,7.8871 58.0983,10.6867 6.0178,0.8159 12.0422,1.6658 18.1046,2.059 8.7497,-0.083 17.5251,-0.051 26.2264,0.9831 5.4111,0.6273 10.7853,1.5831 16.0764,2.8773 3.0189,0.7698 6.0209,1.5972 8.9721,2.5989 2.9493,0.9131 5.8045,2.1048 8.6808,3.2197 3.0841,1.4146 6.2323,2.6985 9.1841,4.3824 2.3162,1.1894 4.5869,2.4577 6.7755,3.8695 3.7248,2.2402 7.2696,4.7727 10.6978,7.4413 6.1331,4.8086 11.785,10.2319 16.8375,16.1648 1.8832,2.2211 3.736,4.4662 5.418,6.8455 1.9929,2.613 3.7622,5.3877 5.5307,8.154 1.7213,2.8336 3.369,5.7087 4.8937,8.6532 5.2247,10.1129 9.106,20.877 12.0519,31.86 4.2756,15.9827 6.8944,32.3423 9.5235,48.6582 2.9759,18.9266 5.7141,37.8893 8.6371,56.8238 5.7985,35.4052 17.2598,69.763 32.691,102.1079 19.3584,40.4172 44.9825,77.8252 75.6532,110.498 9.3615,9.9566 19.2238,19.4305 29.2598,28.7023 20.1351,18.4669 41.6259,35.7181 65.5647,49.0327 18.3253,10.2664 37.9749,18.0055 58.0782,24.0071 15.1128,4.5174 30.4696,8.1893 45.9226,11.336 39.156,7.7098 79.5959,8.437 119.0863,2.8663 58.363,-8.2125 114.5583,-30.0094 163.9957,-61.9622 24.3483,-15.7241 47.1198,-33.8906 67.874,-54.122 13.5113,-13.5405 25.0219,-28.9407 35.4036,-44.9684 15.223,-23.6317 27.9496,-48.7951 39.1139,-74.5697 15.8228,-36.6706 28.4406,-74.6696 38.7706,-113.2313 13.7054,-51.3242 23.3174,-103.7092 29.4508,-156.4655 1.7647,-15.311 3.2647,-30.6535 4.3834,-46.0257 1.4895,-18.725 2.9511,-37.465 5.4022,-56.094 2.1822,-16.2395 5.3909,-32.4732 11.5047,-47.7336 2.3751,-5.9445 5.16,-11.7288 8.3913,-17.2562 1.3997,-2.3969 2.8656,-4.7615 4.431,-7.0538 1.6903,-2.4779 3.4461,-4.9074 5.3283,-7.2438 1.7872,-2.3337 3.7793,-4.5032 5.7154,-6.7119 2.3205,-2.3853 4.5981,-4.8145 7.1092,-7.0036 2.4547,-2.3683 5.1823,-4.4229 7.829,-6.5666 2.7664,-1.9711 5.4714,-4.0336 8.4008,-5.7622 2.8615,-1.8823 5.8972,-3.4756 8.9088,-5.0987 2.9394,-1.4096 5.8552,-2.8718 8.9016,-4.0411 2.8432,-1.211 5.7742,-2.2069 8.7068,-3.1747 5.6885,-1.7982 11.5031,-3.1898 17.3909,-4.1531 3.6881,-0.6216 7.4195,-1.0027 11.1336,-1.3693 12.7326,-4.9848 25.0986,-10.848 37.3872,-16.8292 22.726,-11.1923 45.0637,-23.182 66.8903,-36.0422 11.4108,-6.7765 22.7413,-13.7249 33.5315,-21.4631 1.9825,-1.4343 3.9716,-2.8734 5.6739,-4.6431 9.1974,-9.0183 17.8403,-18.5798 26.4481,-28.156 22.017,-24.6937 43.3103,-50.0215 64.3842,-75.5212 6.9317,-8.3967 13.8215,-16.8264 20.6912,-25.274 -0.2268,0.2859 0.666,-0.8206 0.8768,-1.0788 31.6618,-39.0349 62.7932,-78.5047 93.111,-118.5938 16.0913,-21.3443 32.0198,-42.822 47.1863,-64.8369 4.8812,-7.0809 9.6075,-14.268 14.1541,-21.5683 16.9549,-26.4913 35.6752,-51.8268 55.5159,-76.2217 19.4862,-23.8789 40.0708,-46.8886 62.0755,-68.479 16.4545,-16.0855 33.6987,-31.4467 52.4055,-44.8834 7.5884,-5.4199 15.4329,-10.4884 23.5343,-15.1076 13.2454,-7.4358 27.0786,-13.7532 40.9571,-19.9008 26.23,-11.5126 52.8568,-22.0976 79.614,-32.316 8.9974,-3.4141 17.9971,-6.8244 27.0678,-10.0396 29.2284,-10.6898 57.8765,-23.2991 84.5209,-39.4653 23.1653,-14.0833 44.8021,-31.0899 62.2697,-51.932 13.527,-16.0564 24.3442,-34.3232 32.3617,-53.7095 4.5863,-11.0534 8.3624,-22.4408 11.3916,-34.0159 1.5983,-7.9566 2.5079,-16.0317 3.421,-24.0898 2.4571,-22.896 3.9395,-45.8839 5.1862,-68.8735 2.1942,-41.8325 3.3417,-83.7158 3.7985,-125.6017 0.058,-5.555 0.098,-11.1101 0.1302,-16.6653 2e-4,0.5336 0,-0.9937 0.01,-1.3304 0.1313,-32.9246 -0.1453,-65.8589 -1.4527,-98.7606 -0.6409,-14.8782 -1.3897,-29.7658 -3.0212,-44.5735 -0.287,-2.149 -0.4531,-4.3308 -0.9346,-6.4438 -9.8142,-31.3563 -27.0512,-60.1029 -48.594,-84.795 -21.9082,-25.0688 -48.3337,-46.1321 -77.475,-62.2043 -6.4457,-3.5199 -12.9739,-6.9123 -19.7108,-9.8437 -12.6952,-5.3246 -26.3198,-7.9895 -39.9221,-9.7213 -19.6846,-2.4075 -39.558,-2.769 -59.3663,-2.4128 -29.6734,0.6055 -59.2818,2.9574 -88.8039,5.9165 -24.9106,2.5061 -49.7609,5.5693 -74.5875,8.7935 -36.2042,4.5692 -72.4759,8.5817 -108.7534,12.5194 -77.8374,8.3936 -155.7384,16.1828 -233.6551,23.8015 -80.5001,7.8511 -161.0238,15.4594 -241.5649,22.8775 -86.4767,7.9625 -172.9739,15.7037 -259.4959,23.1597 -72.9435,6.2583 -145.9006,12.3718 -218.9051,17.8797 -32.8477,2.4513 -65.7027,4.8417 -98.5933,6.6461 -11.0359,0.6088 -22.0806,1.0297 -33.1275,1.3751 -34.3091,1.1633 -68.6182,2.3257 -102.9274,3.4875 -45.3676,-59.5612 -90.7125,-119.1397 -136.0927,-178.6913 -44.0302,-57.662 -87.7781,-115.5389 -131.4845,-173.4465 -89.321,-118.4084 -178.3391,-237.0449 -267.1921,-355.8047 -72.7799,-97.2924 -145.4471,-194.6695 -217.8719,-292.2267 -36.2371,-48.8369 -72.4407,-97.6995 -108.3667,-146.7659 -12.0744,-16.4979 -24.0836,-33.0437 -35.9296,-49.7065 -27.999,-39.201 -55.7643,-78.574 -82.7879,-118.4555 -16.7308,-24.7565 -33.2331,-49.6809 -48.7698,-75.2087 -9.5794,-15.851 -18.8886,-31.9111 -26.6907,-48.7253 -6.1075,-13.2318 -11.1163,-27.0854 -13.4833,-41.5077 -1.0353,-6.1226 -1.5501,-12.327 -1.6246,-18.5347 0.01,-3.361 0.1041,-6.7215 0.4005,-10.0707 0.1991,-2.9693 0.674,-5.9145 1.0614,-8.8629 0.7035,-3.387 1.241,-6.8129 2.2442,-10.1296 0.6803,-2.4895 1.2708,-5.0074 2.2501,-7.4021 1.0729,-2.8416 1.9613,-5.7595 3.3431,-8.4734 1.1496,-2.3447 2.0922,-4.7974 3.3988,-7.0602 1.6517,-2.7824 3.2082,-5.6271 4.9183,-8.3712 2.2525,-3.032 4.4369,-6.1201 6.732,-9.1171 2.634,-2.8324 5.2064,-5.728 7.8785,-8.5214 2.9846,-2.5757 5.9132,-5.2237 8.9332,-7.754 3.1918,-2.1632 6.3263,-4.4194 9.553,-6.5258 3.2679,-1.7559 6.4878,-3.6125 9.7882,-5.3008 3.6864,-1.4999 7.3419,-3.0893 11.0483,-4.5312 24.7313,-6.9434 49.5997,-13.3903 74.5243,-19.6004 11.1369,-2.7821 22.3047,-5.4383 33.4691,-8.1059 24.6472,-6.2386 49.1073,-13.1882 73.5318,-20.2407 48.2204,-13.9876 96.2663,-28.568 144.29,-43.2139 79.8189,-24.3893 159.5311,-49.1257 239.2342,-73.89 71.3813,-22.1925 142.7386,-44.462 214.0981,-66.7241 41.8569,-12.9597 83.9289,-25.2126 126.0598,-37.247 49.5845,-14.1007 99.2731,-27.8449 149.156,-40.8539 11.7711,-3.0858 23.59,-5.9873 35.3334,-9.1788 19.3637,-5.1717 38.6889,-10.4871 57.9811,-15.9194 -0.1612,0.049 1.0744,-0.3036 1.4678,-0.4142 26.276,-7.451 52.5131,-15.0602 78.5248,-23.3939 6.4783,-2.114 12.9735,-4.2018 19.3415,-6.628 17.8607,-9.6008 33.9361,-22.2735 48.3653,-36.4634 18.8482,-18.6286 34.9662,-39.9868 47.9493,-63.0795 10.9094,-19.4503 19.598,-40.2152 25.0185,-61.8715 2.7679,-10.2221 5.0129,-20.6061 6.1698,-31.1424 1.7201,-15.349 2.0473,-30.8117 2.1827,-46.2433 0.1394,-24.2787 -0.4637,-48.5541 -1.1571,-72.821 -1.2907,-43.2462 -3.0407,-86.4771 -4.8008,-129.7062 -0.4936,-12.2659 -0.9837,-24.5319 -1.6113,-36.7918 -3.819,-79.1575 -7.9791,-158.2982 -12.2423,-237.4329 -1.1449,-21.2742 -2.3131,-42.5472 -3.4777,-63.8205 -0.022,-0.3359 -0.067,-1.1988 -0.097,-1.7367 -2.7431,-49.791 -5.5446,-99.5789 -8.4142,-149.3629 -0.012,-0.2522 -0.069,-1.1976 -0.099,-1.7168 -0.6513,-11.1999 -1.3027,-22.3997 -1.954,-33.5996 -0.016,-0.2278 -0.071,-1.197 -0.1022,-1.7109 l -1.89,-32.0313 c 0,-0.081 -0.068,-1.1452 -0.094,-1.5895 -1.0066,-16.8569 -2.0106,-33.7139 -3.1315,-50.5637 -6.0339,-93.4653 -11.7914,-186.9485 -17.4119,-280.4397 -6.5872,-109.8021 -12.9586,-219.6171 -19.1898,-329.44 -7.5614,-133.4769 -14.9097,-266.9658 -22.1232,-400.4619 -1.0799,-19.2305 -2.218,-38.4578 -3.4537,-57.679 0.025,0.4308 -0.068,-1.0314 -0.091,-1.3641 -2.1967,-33.457 -4.6321,-66.9093 -8.2489,-100.247 -2.4004,-21.7048 -5.2353,-43.3942 -9.7056,-64.7817 -3.125,-14.6056 -6.9391,-29.1772 -13.1585,-42.8052 -4.303,-9.4555 -10.0902,-18.1817 -16.7654,-26.1235 -9.4422,-11.2576 -20.153,-21.3626 -30.9788,-31.2664 -20.2258,-18.2933 -42.6969,-34.3909 -67.5828,-45.7227 -18.9381,-8.6273 -39.3468,-14.31 -60.1698,-15.5253 -3.9133,-0.2271 -7.8346,-0.3039 -11.7539,-0.2324 z m -5410.7031,324.2968 c 11.057,0.2377 22.07,2.0904 32.6338,5.3509 3.4548,1.0375 6.8513,2.2623 10.2017,3.5958 9.6,3.831 18.7293,8.7681 27.4097,14.3644 15.022,9.7315 28.8179,21.2004 42.3163,32.915 20.1433,17.6169 39.6017,35.9962 59.0007,54.4236 28.9491,27.6007 57.6239,55.4871 86.2675,83.4041 48.3356,47.3039 96.8409,94.4353 145.6503,141.2505 23.6908,22.6918 47.414,45.3522 71.4402,67.6896 6.5467,6.0988 13.1697,12.1151 19.8215,18.0985 16.8099,15.523 33.316,31.3706 49.8522,47.1836 45.0982,43.2604 89.9107,86.8176 134.608,130.4916 48.0625,46.9708 95.9575,94.1129 143.6689,141.4403 12.3049,12.261 24.7826,24.3467 37.1789,36.515 48.0655,46.9911 96.2224,93.8887 144.4659,140.6971 0.1959,0.1951 0.8613,0.8356 1.2377,1.202 59.4491,57.6474 118.9812,115.21 178.8032,172.4706 15.2126,14.5315 30.415,29.0745 45.731,43.4971 42.9101,39.4083 85.3821,79.2906 127.7166,119.3156 33.3198,31.5329 66.5615,63.1489 99.6194,94.9563 32.3758,31.3784 64.9743,62.541 98.4584,92.7395 22.3376,20.0824 45.0455,39.7865 68.7855,58.2038 18.1721,14.0296 36.9447,27.396 57.0406,38.5517 15.1616,8.4144 31.2068,15.3496 47.9845,19.8187 20.2405,5.4637 41.2026,7.5623 62.0826,8.671 13.1886,0.7399 26.4134,1.4057 39.6211,0.7798 10.6897,-0.4851 21.2729,-2.3279 31.6481,-4.893 15.1716,-3.7492 30.0799,-8.4714 44.952,-13.2512 10.7275,-3.4408 21.3732,-7.1333 32.1464,-10.4319 28.9819,-8.9698 58.288,-16.863 87.7294,-24.1723 26.8611,-6.6291 53.8484,-12.7831 81.0319,-17.9481 9.64,-1.8093 19.3087,-3.4605 28.9546,-5.2382 -0.5632,0.1065 0.9608,-0.1763 1.2942,-0.237 29.4349,-5.4173 58.8259,-11.0845 88.1176,-17.2315 6.1911,-1.3387 12.4067,-2.5838 18.5462,-4.1459 50.8425,-13.2754 102.4067,-23.6806 154.2703,-32.0698 47.9433,-7.7315 96.1654,-13.7191 144.5308,-18.0821 49.4333,-4.4531 99.0238,-7.2236 148.652,-8.0653 50.5411,-0.8261 101.1455,0.2979 151.5343,4.4455 25.678,2.1315 51.2946,5.0828 76.7365,9.1756 45.0166,7.089 89.9064,15.9435 133.3258,29.9805 29.2534,9.3968 57.7199,21.1938 85.1609,35.0061 35.0766,17.6212 68.5279,38.2757 101.2919,59.8429 21.4942,14.2501 43.4469,27.7973 65.5923,41.0083 7.0248,4.1617 14.0451,8.3373 21.1622,12.3381 10.2809,4.8479 20.9442,8.8254 31.6257,12.6888 21.5039,7.6542 43.3318,14.3841 65.3449,20.4119 14.9217,4.0367 29.9249,7.8422 45.1336,10.6446 2.2121,0.3612 4.428,0.8277 6.6569,1.0077 7.7608,-0.9545 15.371,-2.8456 22.9142,-4.8615 18.6577,-5.1135 36.8728,-11.7228 54.8044,-18.9546 28.2567,-11.4799 55.8043,-24.7046 82.4593,-39.527 7.101,-3.9589 14.285,-7.7673 21.3972,-11.7064 l 10.0074,-5.5146 c -0.1799,0.1043 0.971,-0.5364 1.3253,-0.7312 3.4541,-1.9112 6.9081,-3.8224 10.3622,-5.7336 -0.053,0.024 0.9901,-0.5504 1.3593,-0.7568 49.251,-27.3476 98.3768,-54.9199 147.5679,-82.3747 35.3127,-19.7246 70.6496,-39.4062 106.0918,-58.8977 45.1514,-24.8364 90.3955,-49.5073 135.8864,-73.7176 22.5584,-12.0028 45.1842,-23.8832 68.0115,-35.368 3.2139,-1.6662 6.4278,-3.3323 9.6416,-4.9985 -0.1196,0.067 0.9952,-0.5173 1.3615,-0.7068 43.4182,-22.5964 86.6914,-45.4738 129.7319,-68.7823 11.7162,-6.3565 23.4085,-12.7573 35.0395,-19.2687 10.8478,-6.0564 21.9805,-11.9757 32.9997,-17.8639 45.2385,-24.0901 90.6468,-47.8593 136.0504,-71.6361 68.9355,-36.0494 137.9431,-71.9612 207.0029,-107.7719 62.7191,-32.489 124.5182,-66.8526 188.3671,-97.0607 44.0587,-20.6115 82.043,-36.236 123.841,-52.4387 18.4237,-7.1418 55.9034,-19.7168 55.9034,-19.7168 0,0 17.1617,-26.2459 23.3442,-40.5715 121.7975,-282.2176 232.6087,-731.6733 266.0951,-882.9079 63.8141,-47.9554 90.5343,-32.8773 148.7482,16.5186 95.907,108.6529 -135.1031,910.1878 -117.8051,940.2316 -33.623,27.6894 -287.9591,242.0102 -321.5821,269.6997 0.327,-0.2648 -0.7989,0.662 -1.0551,0.8754 -13.2709,10.9326 -27.0707,21.2007 -40.8804,31.4371 -34.1355,25.128 -68.7775,49.5581 -103.4831,73.8896 -55.1431,38.5788 -110.6042,76.7009 -166.1938,114.6327 -86.3571,58.9037 -173.0535,117.3086 -259.9585,175.4005 -51.877,34.683 -103.8486,69.2241 -155.8713,103.688 -30.6026,20.4099 -61.1446,40.9106 -91.6105,61.524 0.067,-0.039 -0.9352,0.6348 -1.2822,0.8718 -37.9145,25.6691 -75.7134,51.5094 -113.3292,77.6145 0.1964,-0.1408 -0.9057,0.6293 -1.2353,0.8575 -22.4837,15.6155 -44.896,31.3338 -67.2041,47.1992 0.4853,-0.3502 -0.7864,0.5605 -1.0639,0.7578 -24.51,17.4813 -48.9282,35.0984 -72.9421,53.2575 -11.2216,8.5382 -22.4298,17.1121 -33.1522,26.2757 -3.941,3.336 -7.4352,7.1495 -11.0137,10.8604 -40.1456,42.4219 -70.0908,94.6663 -85.2456,151.1404 -10.822,40.3545 -13.9855,83.0091 -7.1637,124.3259 4.0054,24.1527 10.4201,47.8406 17.8314,71.1522 11.2804,35.2066 24.9993,69.5881 39.9219,103.3968 20.1436,45.5012 42.5612,89.9691 66.3195,133.6821 24.944,45.8858 51.4137,90.9326 78.9459,135.3103 29.8117,48.0441 60.9108,95.2835 92.9863,141.8448 0.3845,0.5528 0.9445,1.3735 1.3963,2.0292 50.8592,73.9811 101.5902,148.0504 152.4647,222.0211 7.0464,10.213 14.073,20.4399 21.147,30.6337 17.1829,24.4362 34.8157,48.5517 52.4251,72.681 20.4787,27.9951 41.3506,56.3029 61.7905,83.9497 47.8229,64.6476 95.8627,129.1345 143.9838,193.5603 0.4217,0.5629 1.0947,1.4702 1.3525,1.8086 37.0629,49.5903 74.1803,99.1398 111.3444,148.6543 0.1763,0.2405 0.7206,0.96 1.0382,1.3844 49.6749,66.1598 99.4342,132.2562 149.2819,198.2858 47.2729,62.603 94.6267,125.1449 142.111,187.5877 35.5949,46.8076 71.2697,93.5547 107.1138,140.1717 0.041,0.06 0.6992,0.9088 0.9689,1.261 24.1013,31.2963 48.2291,62.5743 72.7391,93.5523 7.3867,9.2621 14.713,18.5788 22.419,27.5793 21.4733,22.6284 44.8111,43.7256 71.0628,60.7025 19.0153,12.3479 39.5147,22.332 60.7653,30.1981 21.5939,7.9773 43.9317,14.4228 66.8986,16.7728 25.1276,2.6381 50.4884,0.3239 75.323,-3.8115 25.8694,-4.3469 51.3751,-10.5961 76.6944,-17.4029 -0.9322,0.2481 0.6591,-0.1813 0.9524,-0.2622 29.2415,-7.9084 58.6645,-15.2444 88.4537,-20.799 46.9561,-8.8439 94.6048,-13.2243 142.216,-16.6971 48.5344,-3.4932 97.1332,-5.9784 145.7221,-8.5646 19.06,-1.0263 38.1169,-2.1107 57.1715,-3.2337 -0.3571,0.024 1.0572,-0.064 1.39,-0.083 26.1942,-1.5634 52.3825,-3.2256 78.5631,-5.0031 -0.4421,0.033 1.0268,-0.071 1.3598,-0.093 32.3374,-2.2124 64.6623,-4.6057 96.9722,-7.1881 -0.4586,0.033 1.0197,-0.084 1.3526,-0.1121 61.2791,-4.9161 122.4998,-10.5432 183.6695,-16.6686 15.1143,-1.5184 30.2258,-3.0632 45.3353,-4.6275 -0.1739,0.021 1.1092,-0.1158 1.515,-0.1577 7.1845,-0.7528 14.3689,-1.5055 21.5534,-2.2583 -0.1253,0.01 1.117,-0.1194 1.5283,-0.1642 59.4197,-6.2798 118.7986,-12.9375 178.1606,-19.7389 39.5283,-4.4097 79.073,-8.6921 118.6729,-12.4133 17.8824,-1.6486 35.7741,-3.2706 53.7099,-4.2169 10.6092,-0.5275 21.2912,-0.7549 31.8483,0.6295 3.0122,0.3668 5.9932,0.9723 8.9827,1.4848 3.399,0.9043 6.8335,1.6975 10.2093,2.6749 3.415,1.3318 6.8724,2.5671 10.2614,3.9581 3.9112,1.9792 7.8662,3.8859 11.75,5.9104 5.0898,3.6705 10.2177,7.2978 15.2859,10.9923 3.2004,3.5391 6.4798,7.01 9.6303,10.5921 2.2829,2.8367 4.6346,5.6262 6.8726,8.4938 2.3607,4.1473 4.8002,8.2548 7.1099,12.4279 1.3929,3.271 2.8936,6.5005 4.2208,9.7967 1.1312,3.4642 2.4248,6.8793 3.2723,10.4289 1.4499,5.3167 2.4331,10.7554 3.0911,16.2244 1.5096,12.8634 1.0453,25.8554 0.2475,38.7518 -1.4244,21.3215 -3.9398,42.5552 -6.8599,63.7186 -2.9597,20.6013 -5.8404,41.214 -8.7574,61.8215 -4.9578,35.1148 -9.9155,70.2296 -14.8732,105.3444 -41.3176,8.5825 -82.6405,17.1401 -123.9551,25.7363 -7.845,2.0425 -15.4568,4.8752 -23.0287,7.7473 -19.2771,7.4866 -38.1044,16.1084 -56.5104,25.5283 -9.7988,5.0043 -19.4154,10.3572 -28.8965,15.9382 -18.2519,10.6488 -36.4489,21.5483 -53.1293,34.5766 -18.1543,14.1677 -34.1001,30.8915 -49.4687,47.9727 -12.8235,14.286 -25.2014,28.9627 -37.5568,43.6529 -21.1481,24.8624 -41.4784,50.4118 -61.3084,76.3346 -16.2195,21.2754 -32.1429,42.7883 -47.2566,64.8669 -4.9428,7.1995 -9.6833,14.5345 -14.3192,21.9346 -21.7218,34.2664 -43.3222,68.6114 -65.4049,102.6471 -13.5103,20.7194 -27.1601,41.3725 -41.9698,61.1945 -12.3613,16.4889 -25.7097,32.3282 -40.9203,46.2756 -12.0545,11.0998 -25.2673,20.9102 -39.2205,29.4909 -14.3934,8.9081 -29.5075,16.5566 -44.4343,24.5117 -19.3752,10.506 -39.3642,19.8328 -59.5184,28.7355 -27.8466,12.2163 -56.0902,23.5391 -84.7247,33.7773 -9.0246,3.2253 -18.1102,6.2765 -27.2244,9.2378 -15.2433,5.142 -30.4606,10.4479 -45.1791,16.9683 -9.6722,4.3113 -19.1292,9.3371 -27.3345,16.0962 -5.3937,4.4045 -10.4001,9.2662 -15.2068,14.2986 -9.31,10.1113 -16.8646,21.7038 -23.513,33.6957 -11.3436,20.6603 -19.9004,42.7517 -26.6953,65.2897 -9.4574,31.5892 -15.3662,64.1993 -18.2405,97.0341 -1.3547,15.5042 -1.9537,31.0695 -1.9205,46.6316 -0.1491,21.9763 -1.4372,43.9368 -3.5091,65.8125 -1.658,17.0011 -3.7407,33.9864 -7.1028,50.7435 -0.6596,3.3984 -1.4725,6.7614 -2.357,10.1077 -3.9726,16.0373 -7.2441,32.2406 -10.2385,48.4862 -1.3374,7.197 -2.4849,14.427 -3.6163,21.6582 -3.3592,19.1744 -9.6054,37.7533 -17.481,55.5232 -8.1251,18.1639 -17.974,35.6142 -29.9546,51.5244 -2.7897,3.6423 -5.6207,7.2592 -8.7197,10.6458 -11.5034,13.0026 -24.1821,25.0937 -38.5929,34.8443 -15.5209,10.579 -32.9479,18.342 -51.1962,22.7942 -17.9445,4.4582 -36.5283,5.6964 -54.9669,5.4204 -18.7513,-0.3412 -37.5323,-3.0217 -55.4025,-8.8038 -10.7652,-3.4561 -21.1712,-8.0388 -30.9678,-13.6858 -7.1262,-4.1206 -13.9254,-8.8072 -20.2995,-14.017 -5.811,-4.7582 -11.279,-9.9389 -16.3198,-15.5071 -5.1845,-5.6975 -9.9157,-11.8018 -14.1985,-18.2035 -5.9908,-9.0066 -11.0671,-18.6151 -15.1885,-28.6149 -7.8789,-19.0424 -12.2878,-39.3914 -14.1969,-59.872 -2.4885,-26.7941 -0.9426,-53.8004 2.3387,-80.4564 3.9786,-31.8292 10.4455,-63.2919 17.8496,-94.4842 9.7836,-40.9341 21.3039,-81.4309 33.4723,-121.7132 6.6056,-21.8002 13.4007,-43.5435 20.3918,-65.223 10.8982,-32.8008 21.6157,-65.6652 31.6975,-98.7272 0.5362,-1.7779 1.0724,-3.5557 1.6086,-5.3335 -0.4659,-0.3638 -0.9276,-0.7331 -1.4004,-1.0879 -4.8479,7.1438 -9.5786,14.367 -14.4354,21.5043 -17.0548,24.5051 -34.248,48.9215 -52.1104,72.8471 -8.6856,11.5935 -17.5315,23.0822 -27.0264,34.0288 -26.6538,32.366 -53.3074,64.7322 -79.961,97.0983 -52.049,-28.0722 -104.0895,-56.1606 -156.1423,-84.2255 -46.0626,-24.4604 -95.5936,-42.3145 -146.5802,-53.2355 -38.824,-8.3048 -78.5401,-12.5473 -118.2506,-12.239 -33.5663,0.1582 -67.2985,1.5603 -100.3532,7.795 -24.3008,4.5243 -48.0205,11.7647 -71.1511,20.414 -23.2751,8.7032 -46.0664,18.6417 -68.6537,28.9841 -23.032,10.5938 -46.0617,21.2064 -69.4021,31.1084 -17.9904,7.5743 -36.1881,14.7957 -55.0041,20.07 -16.07,4.5111 -32.6686,7.4278 -49.3897,7.587 -18.221,0.2214 -36.4962,-2.9058 -53.5367,-9.3867 -7.8581,-2.9687 -15.4466,-6.6355 -22.705,-10.8611 -12.1465,-7.0607 -23.2664,-15.7432 -33.8167,-24.9861 -9.7769,-8.6642 -19.4407,-17.5522 -27.6905,-27.7193 -7.3682,-9.0271 -13.6394,-18.9673 -18.411,-29.6049 -3.0943,-6.9237 -5.5784,-14.122 -7.3619,-21.4943 -1.6382,-6.6918 -2.6972,-13.5244 -3.2119,-20.3937 -1.0207,-13.4308 0.1737,-26.9674 2.9111,-40.1367 2.6985,-13.046 6.7913,-25.7434 10.7988,-38.431 5.6342,-17.0344 13.5651,-33.2211 22.4631,-48.7693 11.1812,-19.4064 23.9439,-37.892 37.9513,-55.3633 8.8271,-11.0125 18.2367,-21.5602 28.2522,-31.5061 23.3702,-23.3333 49.6011,-43.7654 77.7853,-60.9632 33.6872,-20.5612 70.1089,-36.4923 107.7795,-48.1765 53.6418,-16.6599 109.6582,-24.8462 165.7001,-27.127 56.223,-2.2594 112.5758,1.3454 168.3047,8.856 58.1153,7.8508 115.5988,19.9801 172.2732,34.9785 4.2372,1.0963 8.4804,2.1694 12.7304,3.2148 -27.047,-29.128 -54.0933,-58.2567 -81.1426,-87.3828 2.7034,-56.4749 5.4328,-112.9486 8.1213,-169.4242 0.7323,-19.1001 1.7021,-38.1926 2.1525,-57.3025 0.1549,-8.2468 0.2722,-16.5087 -0.2816,-24.744 -7.6688,-6.1517 -15.9149,-11.5328 -24.1566,-16.8751 -18.2891,-11.7127 -36.9506,-22.8279 -55.5073,-34.1078 -2.7761,-1.6815 -5.5522,-3.363 -8.3283,-5.0444 -5.534,8.9216 -9.4731,18.7272 -12.8047,28.6521 -3.8272,11.5268 -6.6449,23.3629 -8.9404,35.282 -4.4359,21.9168 -9.159,43.7739 -13.6339,65.6825 -0.8222,4.2148 -1.7646,8.4143 -2.1936,12.6932 -0.2952,1.9733 -0.3336,4.0004 -1.0353,5.8884 -2.3637,7.962 -4.7275,15.9239 -7.0913,23.8858 -7.4232,9.9669 -14.8457,19.9344 -22.2676,29.9023 -10.2407,6.4777 -20.481,12.9561 -30.7207,19.4356 -9.9158,2.3243 -19.8317,4.6485 -29.748,6.9707 -7.303,-0.1972 -14.6107,-0.3504 -21.9107,-0.5776 -4.6686,-0.924 -9.3575,-1.7668 -14.0129,-2.7445 -3.3715,-1.0569 -6.7772,-2.0183 -10.1277,-3.1334 -2.947,-1.2558 -5.9537,-2.3826 -8.8609,-3.7248 -3.2085,-1.6952 -6.5341,-3.1816 -9.5855,-5.1576 -6.1252,-3.6156 -11.8475,-7.8734 -17.3304,-12.3946 -9.6783,-8.0605 -18.7723,-16.7894 -27.8253,-25.5372 -20.4115,-19.871 -40.3281,-40.2424 -60.174,-60.676 -42.0035,-43.3488 -83.468,-87.2163 -124.7361,-131.2647 -43.4829,-46.4357 -86.6964,-93.1236 -129.656,-140.0437 -48.4302,-52.8895 -96.5444,-106.0702 -144.106,-159.7428 -12.9181,-14.5738 -25.766,-29.2094 -38.582,-43.873 -35.7352,-40.6835 -71.8698,-81.0141 -108.077,-121.2774 -58.4929,-64.9774 -117.2831,-129.6875 -176.427,-194.0729 -31.2182,-33.9692 -62.544,-67.8403 -94.1173,-101.48 -46.3786,-49.798 -92.4623,-99.8701 -138.3872,-150.0866 -44.3341,-48.5158 -88.5299,-97.1599 -132.2805,-146.2032 -12.1703,-13.5969 -24.4346,-27.1095 -36.6608,-40.6561 -54.1866,-59.9042 -108.5365,-119.6606 -163.0409,-179.2758 -5.9845,-6.5338 -11.9347,-13.0996 -18.0431,-19.5184 -25.6225,-27.4007 -50.9791,-55.0485 -76.2994,-82.7283 -28.1784,-30.7977 -56.2449,-61.6976 -84.2709,-92.6341 -15.2923,-16.8122 -30.6835,-33.5343 -46.174,-50.1641 0.235,0.2468 -0.7262,-0.7787 -0.9532,-1.0231 -32.9973,-35.3926 -66.4517,-70.3622 -100.5272,-104.7191 0.3159,0.3243 -0.7239,-0.7268 -0.9603,-0.9627 -31.4406,-31.6323 -63.374,-62.7915 -96.3328,-92.8451 -18.5839,-16.8944 -37.4616,-33.4908 -57.1548,-49.0882 -9.2813,-7.3237 -18.7838,-14.3882 -28.7811,-20.7113 -18.1957,-11.614 -37.2168,-21.8784 -56.4927,-31.5712 -30.475,-15.2537 -61.702,-28.9634 -93.269,-41.7889 -44.1936,-17.9079 -89.1038,-34.0254 -134.4712,-48.6981 -48.5524,-15.6771 -97.6487,-29.6948 -147.2388,-41.7026 -31.9839,-7.7208 -64.1786,-14.5969 -96.596,-20.2417 -18.3645,-3.2249 -36.754,-6.3053 -55.1447,-9.3765 0.1084,0.021 -1.1106,-0.1834 -1.5209,-0.2504 -23.8357,-3.9566 -47.6813,-7.8529 -71.5319,-11.7184 -0.2959,-0.051 -1.1849,-0.192 -1.7085,-0.2776 -75.2084,-12.167 -150.4588,-24.073 -225.736,-35.8061 -54.5597,-8.4793 -109.1265,-16.9168 -163.747,-24.9975 -12.889,-1.9196 -25.7934,-3.7347 -38.6903,-5.5996 -23.989,-3.6687 -47.5717,-10.3541 -69.6376,-20.5085 -23.3584,-10.679 -44.8943,-25.1554 -64.0978,-42.1739 -25.927,-22.9261 -47.719,-50.1109 -67.2777,-78.5566 -18.0614,-26.3486 -34.3491,-53.8655 -49.8976,-81.7563 -16.8897,-30.327 -32.8377,-61.1664 -48.5114,-92.1358 -7.4403,-14.6133 -14.9447,-29.1938 -22.4949,-43.7506 0.2699,0.5281 -0.4484,-0.858 -0.6066,-1.1591 -27.182,-52.309 -55.1454,-104.2163 -84.2055,-155.5074 -8.8763,-15.6632 -17.8571,-31.2673 -26.9496,-46.8062 0.1662,0.2929 -0.54,-0.9191 -0.71,-1.2062 -45.7096,-78.0693 -94.3848,-154.44 -146.9012,-228.1179 -42.7736,-60.0776 -88.0953,-118.3333 -135.64,-174.708 -8.043,-9.5447 -16.1525,-19.0332 -24.3152,-28.4757 0.2871,0.3262 -0.6759,-0.7806 -0.8937,-1.0332 -29.4166,-33.9807 -59.5819,-67.3105 -90.3587,-100.0635 -18.2195,-19.408 -36.4873,-38.7854 -55.5121,-57.4111 -12.9919,-12.6329 -26.3208,-25.0054 -40.9406,-35.7531 -10.5819,-7.8027 -21.9789,-14.4543 -33.8086,-20.1739 -16.8299,-8.1444 -34.2772,-14.9171 -51.7473,-21.5432 -10.0938,-3.811 -20.2303,-7.5072 -30.3603,-11.2201 -36.8074,-13.885 -71.6677,-32.7175 -104.0096,-55.068 -33.4998,-23.2184 -64.3903,-50.2801 -91.3607,-80.8619 -9.5862,-10.8744 -18.6228,-22.2289 -27.1101,-33.9805 -14.6707,-20.0974 -28.9293,-40.4914 -43.1934,-60.8783 -30.6518,-43.9125 -60.9959,-88.0389 -91.2924,-132.197 -60.3118,-87.9758 -120.2915,-176.179 -180.0985,-264.4985 -57.8263,-85.4163 -115.4914,-170.9421 -172.8557,-256.6695 -28.9838,-43.3552 -57.9293,-86.7367 -86.5887,-130.3073 -13.0435,-19.8764 -26.099,-39.7479 -38.7554,-59.874 -4.7074,-7.5636 -9.4669,-15.121 -13.4465,-23.1007 -6.653,-13.7626 -13.3807,-27.607 -17.5669,-42.3615 -3.1158,-10.8557 -4.8612,-22.121 -4.9361,-33.4216 -0.029,-4.9702 0.2577,-9.9414 0.8615,-14.8753 0.437,-3.5515 1.0554,-7.079 1.8158,-10.5757 0.7718,-3.4815 1.7058,-6.9272 2.8004,-10.3218 0.7968,-2.5049 1.7079,-4.9772 2.6805,-7.4188 1.6387,-4.0575 3.4878,-8.0299 5.5868,-11.8703 2.9878,-5.5285 6.4545,-10.7956 10.2974,-15.7672 6.8151,-8.8134 14.9043,-16.5841 23.6654,-23.4441 3.5222,-2.7776 7.1104,-5.4709 10.8239,-7.9884 2.2564,-1.4434 4.5372,-2.8602 6.8559,-4.2013 2.8965,-1.5385 5.7406,-3.1824 8.7672,-4.4586 4.1577,-1.9504 8.4595,-3.5892 12.8295,-4.9965 6.2048,-2 12.5853,-3.4429 19.0393,-4.3554 6.1327,-0.843 12.3272,-1.2167 18.5168,-1.0597 z m 1264.0976,388.7364 c 2.6322,0.1931 5.2865,0.1896 7.8787,0.7374 3.2305,0.5586 6.4927,0.9603 9.661,1.8266 2.546,0.5817 5.0786,1.2127 7.5557,2.0458 9.6007,2.9489 18.7477,7.1573 27.8643,11.3277 19.9567,9.2665 39.6613,19.0637 59.3553,28.8726 39.5802,19.7819 78.9517,39.9786 118.241,60.3312 26.3186,13.6332 52.5691,27.3968 78.8141,41.1708 40.7437,21.3628 81.5174,42.6683 122.3272,63.9047 0.039,0.013 1.0154,0.5264 1.4052,0.7268 9.417,4.8905 18.834,9.7811 28.251,14.6716 -0.01,-2e-4 1.011,0.524 1.3926,0.7229 56.3419,29.1834 112.7546,58.2349 169.5038,86.6202 24.0959,12.039 48.2554,23.9521 72.5411,35.6042 -0.4846,-0.2369 0.8949,0.4266 1.1994,0.5709 28.3786,13.5689 56.9064,26.853 85.9133,39.0325 20.4158,8.5241 41.0725,16.5772 62.3111,22.829 9.5653,2.8069 19.2769,5.0758 28.8834,7.7336 21.7602,5.8797 43.439,12.5431 63.7772,22.3848 16.1573,7.7595 31.3354,17.5113 45.2322,28.8235 20.8096,16.8722 38.8284,36.793 57.0511,56.3387 26.1116,28.0353 52.0841,56.2058 77.4802,84.8927 14.3327,16.2303 28.5249,32.597 42.0459,49.5139 9.6313,12.1394 19.0293,24.5372 26.8541,37.9388 3.5586,6.1112 6.7265,12.4527 9.3625,19.0167 0.9863,2.4913 1.8906,5.0199 2.7521,7.5566 0.9581,3.179 1.9258,6.3553 2.6442,9.5991 0.9071,3.8544 1.5654,7.7637 2.0795,11.6887 0.3272,3.0928 0.6252,6.1878 0.7071,9.2984 0.231,3.3535 -0.023,6.7135 -0.074,10.0691 -0.3042,2.9413 -0.4723,5.9015 -0.8671,8.8304 -0.5879,3.0138 -1.0498,6.0564 -1.7211,9.0513 -0.878,3.113 -1.6494,6.261 -2.5925,9.3525 -1.3213,3.3232 -2.5435,6.6906 -3.9232,9.9876 -1.7805,3.4465 -3.4774,6.9425 -5.3128,10.3568 -2.3488,3.4316 -4.6251,6.9185 -7.0196,10.3151 -2.6402,3.0388 -5.2129,6.1427 -7.8942,9.1418 -3.1143,2.8371 -6.1651,5.7523 -9.3187,8.5411 -3.2892,2.313 -6.5205,4.7169 -9.8477,6.9705 -3.1968,1.7822 -6.3432,3.6652 -9.5718,5.3838 -3.2423,1.38 -6.4486,2.855 -9.7127,4.1774 -3.0554,0.9571 -6.0716,2.0533 -9.1521,2.9211 -2.8622,0.6356 -5.6892,1.4511 -8.5767,1.9585 -2.8994,0.4219 -5.785,0.9817 -8.7008,1.2531 -11.9931,2.9336 -23.8192,6.502 -35.6341,10.0748 -17.0951,5.2234 -34.0822,10.7927 -51.0149,16.5183 -19.9559,6.392 -39.8393,13.009 -59.6699,19.7793 0.3811,-0.1261 -0.9877,0.3394 -1.3026,0.4485 -14.0024,4.8114 -28.0037,9.6315 -41.9091,14.7177 -2.6279,0.9747 -5.326,1.7559 -8.0155,2.5398 -2.926,0.7962 -5.8678,1.5243 -8.8471,2.0935 -2.9046,0.6314 -5.862,0.99 -8.8006,1.4209 -3.3217,0.2947 -6.6363,0.7015 -9.9758,0.7066 -2.496,0.1116 -4.9917,0.1404 -7.4864,-0.019 -2.5656,-0.091 -5.1328,-0.1601 -7.6762,-0.5371 -2.7743,-0.3218 -5.5605,-0.5664 -8.2886,-1.1892 -2.833,-0.5733 -5.7062,-0.9776 -8.4616,-1.8769 -2.965,-0.8815 -5.9946,-1.5669 -8.8578,-2.7574 -2.8958,-1.1284 -5.8763,-2.0579 -8.6363,-3.5047 -2.8131,-1.4028 -5.7451,-2.5832 -8.401,-4.28 -2.2828,-1.4021 -4.6612,-2.6586 -6.878,-4.1612 -2.5416,-1.882 -5.1658,-3.6594 -7.656,-5.6063 -2.3232,-2.0509 -4.7433,-3.9983 -7.0014,-6.1188 -2.108,-2.1987 -4.3339,-4.2908 -6.3613,-6.5626 -2.2453,-2.7702 -4.6858,-5.3891 -6.687,-8.348 -1.6333,-2.2744 -3.3158,-4.516 -4.7055,-6.9521 -1.4261,-2.2796 -2.8296,-4.572 -4.0187,-6.9865 -1.2871,-2.3244 -2.4204,-4.7238 -3.4791,-7.1596 -1.2995,-2.7984 -2.3662,-5.6995 -3.4447,-8.5876 -1.0516,-3.1156 -2.0535,-6.2462 -2.88,-9.4299 -1.771,-6.7173 -2.9641,-13.5835 -3.6441,-20.496 -0.3147,-3.2036 -0.5195,-6.4174 -0.6188,-9.6349 -2.9151,-6.3753 -7.0149,-12.1238 -11.306,-17.6354 -9.8637,-12.4625 -21.4128,-23.5011 -33.6273,-33.6328 -19.4615,-16.029 -40.8259,-29.7108 -63.3548,-41.0099 -15.1645,-7.2098 -30.6137,-13.8001 -46.0727,-20.3476 -35.2004,-14.7881 -70.6786,-28.9138 -106.3981,-42.3996 -13.1123,-4.9419 -26.3045,-9.6686 -39.4187,-14.6057 -47.149,-17.6493 -94.0712,-35.8986 -140.899,-54.3814 -65.6265,-25.9214 -131.0586,-52.3355 -196.2831,-79.2524 -41.7498,-17.2678 -83.44,-34.687 -124.8529,-52.7502 -17.4278,-7.6549 -34.8533,-15.3351 -51.9508,-23.7089 -12.8398,-6.4703 -25.6208,-13.0571 -38.4368,-19.5745 -25.3932,-12.9557 -50.7861,-25.9118 -76.1791,-38.8676 4.3757,-49.4628 8.7786,-98.9234 13.1377,-148.3876 2.1778,-27.5121 4.5886,-55.0191 8.1883,-82.3867 2.5306,-18.7005 5.5368,-37.4032 10.7027,-55.5807 4.0076,-14.0411 9.5169,-27.741 17.3062,-40.1303 2.0243,-3.2651 4.2385,-6.4077 6.551,-9.4747 1.6216,-2.0712 3.2658,-4.1332 5.0024,-6.1093 2.0742,-2.2895 4.1286,-4.5981 6.3929,-6.7042 2.5478,-2.6195 5.4129,-4.8951 8.1623,-7.2941 2.4954,-1.7991 4.8792,-3.7603 7.4561,-5.4412 2.3771,-1.4584 4.6644,-3.0718 7.1022,-4.4255 2.6449,-1.3484 5.2266,-2.8303 7.9122,-4.0928 2.8652,-1.1773 5.6827,-2.4827 8.5787,-3.5775 3.067,-0.9561 6.0975,-2.0446 9.1879,-2.9158 3.2189,-0.7044 6.4162,-1.5298 9.6492,-2.1555 3.2757,-0.3925 6.5396,-0.9191 9.8223,-1.2298 3.3851,-0.1223 6.7709,-0.361 10.1554,-0.4157 1.6748,0.1019 3.3497,0.2038 5.0245,0.3058 z m 4237.1387,947.7285 c 2.1619,15.2525 4.3914,30.4956 6.5088,45.7543 2.7407,20.6512 4.6963,41.3972 6.5192,62.1467 3.3622,38.9719 6.0157,78.0016 8.3863,117.0452 3.1585,52.4237 5.7734,104.881 7.7482,157.3629 1.1534,31.5943 2.1323,63.1999 2.3529,94.8162 0.061,14.784 0.048,29.583 -0.8757,44.3439 -0.6049,9.3365 -1.748,18.6727 -4.0805,27.746 -0.8138,2.91 -1.5001,5.8598 -2.6117,8.6762 -0.9283,2.5926 -1.7716,5.2191 -2.983,7.6985 -1.1029,2.4916 -2.1706,5.0006 -3.5384,7.3624 -1.3447,2.4219 -2.5006,4.9574 -4.1433,7.1998 -1.712,2.496 -3.3247,5.0673 -5.0975,7.5171 -2.6852,3.1018 -5.2995,6.272 -8.0277,9.3321 -2.6302,2.3671 -5.185,4.8232 -7.8636,7.1332 -2.7248,2.0782 -5.3012,4.3611 -8.214,6.1797 -2.3506,1.5785 -4.6898,3.1754 -7.1808,4.5282 -10.1529,5.9305 -21.1665,10.1736 -32.1543,14.2705 -19.2907,7.0802 -38.8164,13.4966 -58.3465,19.8793 -41.8738,13.5872 -83.9308,26.6022 -126.0374,39.4477 -44.513,13.5875 -89.1379,26.8033 -133.6854,40.277 -15.0199,4.5247 -30.0332,9.0717 -45.0487,13.6112 -0.2601,0.075 -1.1485,0.3477 -1.6503,0.4988 -53.988,16.3528 -107.9476,32.7993 -161.875,49.3508 -0.2102,0.061 -1.1461,0.3519 -1.6366,0.5017 -66.4704,20.4261 -132.9077,40.9634 -199.1968,61.9718 -61.4714,19.5724 -123.0896,38.6834 -184.8447,57.341 -37.0728,11.18 -74.1823,22.2437 -111.4247,32.8467 -14.1547,4.0158 -28.3334,7.9538 -42.6044,11.5384 -21.4136,5.6096 -42.6105,12.0504 -63.5331,19.2789 -9.3916,3.3006 -18.7798,6.6568 -27.8858,10.692 -5.6923,2.7472 -11.479,5.2942 -17.1948,7.993 -9.272,4.2719 -18.4392,8.7795 -27.8362,12.7743 -4.8914,2.0525 -9.8957,3.8427 -15.019,5.2245 -1.9653,0.5873 -3.9337,1.1613 -5.9693,1.4488 -3.3063,0.5779 -6.6002,1.2651 -9.9141,1.775 -6.1382,0.2514 -12.2803,0.5639 -18.4159,0.7796 -10.5009,-1.9103 -21.0021,-3.819 -31.5032,-5.7282 -5.2278,-3.3725 -10.4104,-6.8188 -15.6666,-10.1448 -1.7389,-1.04 -3.5586,-1.9648 -5.246,-3.0782 -1.2321,-1.1198 -2.5637,-2.1055 -3.9901,-2.9636 l -21.6852,-14.0946 c -1.9746,-5.642 -3.9492,-11.2839 -5.9238,-16.9258 -11.7919,-15.9727 -23.3375,-32.126 -35.1936,-48.0516 -26.7811,-36.2347 -53.5635,-72.4683 -80.3454,-108.7023 40.5146,-36.5342 81.012,-73.0876 121.5376,-109.6095 48.0759,-42.915 101.0953,-80.0712 156.6647,-112.6083 62.6729,-36.6491 128.6355,-67.4804 196.2332,-93.8779 76.8768,-29.9796 155.9161,-54.2356 235.9835,-74.0942 24.7781,-6.1488 49.6702,-11.8298 74.6312,-17.1854 30.8255,-6.6874 61.6358,-13.4449 92.4283,-20.2829 0.032,0 1.1156,-0.2483 1.5421,-0.3425 53.0643,-11.8213 106.0918,-23.8227 158.9289,-36.6265 23.3655,-5.7083 46.7193,-11.4901 69.8801,-17.9876 4.6344,-1.3114 9.2623,-2.6484 13.8598,-4.0844 4.3274,-6.7575 7.2049,-14.3316 9.4922,-21.9903 2.5209,-8.6114 4.1011,-17.4787 5.002,-26.4004 -34.9916,-39.6581 -69.9844,-79.3151 -104.9766,-118.9726 58.843,-41.471 117.6706,-82.9639 176.523,-124.4215 31.3833,-22.0598 62.787,-44.0905 94.1832,-66.132 60.4822,-42.3375 120.9641,-84.6753 181.4461,-127.0129 7.8562,54.9915 15.7123,109.983 23.5684,164.9746 z"
       sodipodi:nodetypes="scccccccccccccccccccccccccccccccccccccccccccscsccccccccccccccccccccccccccccccccccccccccccccccccccccccccccccccccccccccccccccccccccccccccccccccccccccccccccccccccccccccccccccccccccccccccccccccccccccccccccccccccccccccccccccccccccccccccccccccccccccccccccccccccccccccccccccccccccccccccccccccssccccccccccccccccccccccccccccccccccccccccccccccccccccccccccccccccccccccccccccccccccccccccccccccccccccsccccccccccccccccccccssscccccccccccccccccccccccccccccccccccccccccccccccccccccccccccccccccccccacacccccccccccccccccccccccccccccccsccccscccccccccccccccccccccccccccccccccccccccccccccccccccccccccccscccccccccccccccccccccccccccccccccccccccccsccccccccccccccccccccccccccccccccccccccccccccccccccccccccccccccccccccccccccccccccccccccccccccccccccccccccccccccccccccccccccccscccccscccccccccccccccccccccccccccccccccccccccccccccccccccccccccccccccscccccccccccccccccccccccccccccsscccccccccccccccccccccccccccccccccccccccccccccccccccccccccccccc"
       inkscape:label="outline" />
    <path
       d="m 7601,7137 c -45,-23 -66,-63 -66,-126 0,-48 5,-64 29,-96 47,-61 127,-82 201,-51 83,35 104,158 40,234 -39,47 -149,68 -204,39 z"
       id="path4"
       inkscape:label="eye" />
  </g>
</svg>
