<?xml version="1.0" standalone="no"?>
<!DOCTYPE svg PUBLIC "-//W3C//DTD SVG 20010904//EN"
 "http://www.w3.org/TR/2001/REC-SVG-20010904/DTD/svg10.dtd">
<svg version="1.0" xmlns="http://www.w3.org/2000/svg"
 width="150pt" height="150pt" viewBox="0 0 512.000000 512.000000"
 preserveAspectRatio="xMidYMid meet">

<g transform="translate(0.000000,512.000000) scale(0.050000,-0.050000)"
fill="#f08000" stroke="none">
<path d="M7196 8454 c-96 -21 -154 -53 -229 -127 -79 -78 -133 -181 -149 -283
-18 -119 -15 -114 -49 -114 -16 0 -62 -7 -101 -16 -96 -22 -143 -15 -247 39
-143 75 -259 83 -404 29 -170 -63 -289 -256 -274 -446 8 -110 51 -205 132
-297 40 -45 179 -159 193 -159 18 0 15 -6 -23 -47 -19 -21 -73 -83 -121 -138
-110 -125 -212 -238 -384 -424 -187 -203 -328 -357 -381 -416 -24 -27 -71 -79
-105 -115 -33 -36 -121 -130 -195 -210 -260 -282 -398 -416 -457 -448 -111
-59 -304 -109 -628 -162 -380 -62 -481 -94 -601 -189 l-51 -40 -114 1 c-101 1
-127 -3 -246 -35 -295 -82 -439 -185 -651 -465 -74 -98 -118 -126 -201 -126
-101 -1 -171 59 -215 184 -21 61 -59 97 -120 116 -100 32 -193 -5 -215 -84
-38 -137 30 -342 157 -473 94 -98 210 -153 342 -165 85 -7 193 20 317 80 103
51 141 85 241 216 131 173 191 231 282 274 67 31 191 71 191 61 0 -10 -116
-206 -161 -271 -72 -107 -277 -362 -297 -373 -9 -4 -46 -16 -82 -26 -73 -19
-142 -51 -213 -98 -48 -32 -104 -107 -202 -272 -50 -85 -94 -153 -215 -335
-236 -355 -365 -557 -390 -614 -35 -76 -52 -191 -40 -265 22 -134 134 -283
253 -337 91 -41 188 -41 277 2 82 40 120 73 425 369 138 134 273 262 300 284
l50 41 7 -45 c23 -159 120 -277 249 -304 105 -23 166 -6 299 80 321 210 626
374 798 429 126 41 171 67 266 159 91 88 283 308 345 397 42 60 43 61 119 79
176 41 388 129 462 192 l28 23 109 -63 c59 -35 126 -75 149 -89 23 -15 113
-62 200 -106 87 -44 186 -94 219 -111 33 -17 128 -64 210 -104 83 -41 202
-101 265 -134 63 -32 158 -72 211 -88 l96 -28 36 -111 c20 -61 54 -178 76
-261 23 -82 59 -217 81 -298 52 -195 72 -238 132 -292 126 -113 277 -110 405
8 85 78 98 125 113 392 19 352 40 722 60 1030 10 165 24 422 31 570 10 242 10
277 -5 333 -24 94 -94 185 -176 227 -16 8 -100 33 -187 56 -87 22 -221 60
-298 84 -442 138 -599 186 -675 205 -47 11 -91 23 -98 25 -14 5 36 86 157 255
76 107 577 777 759 1015 l99 130 59 -2 c132 -4 974 -81 1182 -108 169 -22 256
-20 317 9 95 45 169 127 197 221 15 51 10 373 -7 439 -32 121 -112 199 -262
252 -54 20 -112 44 -129 55 -43 26 -112 103 -154 169 -50 81 -253 333 -292
362 -45 35 -168 98 -190 98 -23 0 -25 4 -32 96 -18 212 -87 402 -178 491 -124
120 -295 172 -452 137z m168 -444 c14 -17 28 -47 31 -68 3 -20 10 -56 16 -79
5 -23 9 -68 9 -101 0 -128 41 -254 104 -316 32 -32 60 -47 126 -69 47 -15 117
-44 155 -65 74 -39 69 -33 195 -232 25 -40 83 -117 130 -172 72 -86 98 -108
169 -149 46 -27 107 -53 136 -59 l53 -11 12 -85 c7 -47 10 -87 7 -90 -2 -3
-85 5 -183 16 -296 34 -468 49 -699 61 -190 10 -234 16 -324 40 -124 34 -190
36 -273 8 -71 -24 -126 -60 -184 -121 -44 -45 -800 -1050 -883 -1172 -27 -39
-103 -150 -169 -246 -173 -251 -287 -478 -312 -623 -23 -131 26 -275 129 -377
34 -33 194 -146 401 -284 361 -239 662 -446 718 -493 l34 -28 -19 -33 c-10
-17 -20 -31 -23 -29 -38 17 -565 291 -620 322 -41 23 -122 66 -180 96 -58 29
-177 94 -265 143 -88 49 -191 107 -230 128 -80 45 -171 78 -214 78 -33 0 -151
-34 -196 -57 -16 -9 -60 -35 -96 -59 -105 -69 -163 -91 -289 -110 -170 -25
-433 -6 -626 45 -21 5 -81 17 -132 26 -51 9 -135 30 -185 47 -79 26 -102 30
-168 26 -127 -7 -194 -49 -399 -248 -52 -50 -153 -146 -225 -212 -71 -67 -251
-241 -400 -387 -148 -147 -299 -293 -335 -326 -36 -32 -144 -136 -241 -231
-156 -152 -179 -171 -194 -160 -16 12 -16 14 0 47 21 41 537 804 619 915 43
59 112 110 180 134 123 45 141 58 262 188 213 230 360 447 534 789 98 194 145
247 226 258 107 15 494 76 574 91 198 37 444 126 555 200 65 43 196 169 346
334 57 63 131 144 165 180 33 36 127 139 209 230 81 91 205 226 274 300 109
116 310 338 391 431 185 211 506 552 508 540 1 -9 10 -49 18 -89 26 -124 94
-173 172 -125 150 91 143 81 137 233 l-6 125 65 70 c144 154 95 210 -132 150
-275 -72 -483 -46 -596 75 -25 27 -50 66 -57 90 -13 41 -12 43 15 67 35 30 46
28 176 -32 112 -51 172 -65 284 -65 107 0 218 28 315 81 l76 41 28 -34 c16
-18 48 -63 73 -99 64 -96 67 -98 120 -69 58 30 94 72 87 102 -2 13 -22 77 -44
143 -93 290 -93 385 0 385 31 0 44 -6 65 -30z m-1388 -3529 c22 -11 76 -29
120 -40 43 -11 187 -54 319 -96 132 -42 352 -109 489 -150 137 -41 253 -78
259 -84 9 -9 -8 -369 -22 -469 l-6 -42 -50 35 c-27 19 -77 54 -111 78 l-61 43
30 34 c27 30 29 38 24 82 -7 60 -34 109 -68 125 -24 11 -142 40 -368 89 -265
57 -477 152 -613 274 l-51 46 34 46 c19 26 34 47 35 47 0 1 18 -8 40 -18z
m-1976 -1050 c50 -17 98 -31 107 -31 15 0 -26 -51 -139 -172 -49 -53 -59 -59
-129 -77 -82 -21 -200 -78 -589 -282 -135 -71 -251 -129 -257 -129 -13 0 -21
36 -29 139 l-7 79 49 25 c61 31 385 163 536 218 62 23 140 55 173 71 94 47
165 124 165 179 0 14 5 19 14 16 8 -3 56 -20 106 -36z"/>
<path d="M7601 7137 c-45 -23 -66 -63 -66 -126 0 -48 5 -64 29 -96 47 -61 127
-82 201 -51 83 35 104 158 40 234 -39 47 -149 68 -204 39z"/>
<path d="M6442 6668 c-13 -7 -47 -46 -75 -87 -62 -89 -187 -241 -199 -241 -4
0 -8 -22 -8 -49 0 -34 6 -56 21 -75 19 -25 151 -116 167 -116 14 0 78 74 176
202 54 70 104 132 113 136 13 8 14 14 4 43 -21 58 -85 152 -120 176 -38 26
-46 27 -79 11z"/>
<path d="M5872 6027 c-13 -6 -32 -28 -43 -49 -25 -49 -139 -191 -195 -244 -59
-55 -60 -91 -4 -162 45 -57 153 -142 178 -142 28 1 55 29 146 152 146 200 166
247 129 315 -26 48 -93 114 -130 129 -38 16 -50 17 -81 1z"/>
<path d="M5289 5358 c-177 -193 -189 -208 -189 -234 0 -39 36 -93 94 -144 28
-25 70 -67 91 -93 54 -65 86 -81 129 -67 29 9 48 34 131 166 119 192 123 200
96 251 -38 73 -201 213 -249 213 -10 0 -56 -41 -103 -92z"/>
<path d="M4796 4858 c-50 -14 -108 -72 -124 -126 -18 -60 -3 -107 60 -178 59
-67 98 -127 153 -231 20 -40 55 -89 76 -108 33 -30 46 -35 87 -35 96 0 169 39
199 105 36 79 15 233 -42 325 -34 53 -213 220 -259 241 -45 20 -90 22 -150 7z"/>
<path d="M3800 4580 c-153 -8 -155 -9 -177 -36 -12 -16 -36 -70 -52 -122 -87
-267 -64 -317 156 -333 64 -5 130 -11 147 -14 49 -10 82 9 112 62 15 26 54 93
86 148 32 54 65 121 74 148 15 45 15 52 1 83 -32 65 -95 77 -347 64z"/>
<path d="M4353 4460 c-12 -10 -36 -56 -54 -102 -19 -46 -53 -121 -77 -167 -44
-84 -55 -138 -33 -165 14 -16 212 -29 401 -26 152 2 170 9 170 67 0 46 -26 94
-112 205 -40 51 -86 111 -102 132 -15 21 -42 46 -60 57 -41 25 -106 25 -133
-1z"/>
<path d="M27 103 c-25 -4 -27 -8 -27 -54 0 -48 1 -49 30 -49 30 0 30 1 30 55
0 30 -1 54 -2 54 -2 -1 -15 -4 -31 -6z"/>
</g>
</svg>
